
<svg width="24" height="24" viewBox="0 0 128 128" xml:space="preserve" xmlns:xlink="http://www.w3.org/1999/xlink" xmlns="http://www.w3.org/2000/svg"><defs><radialGradient xlink:href="#a" id="b" cx="94.366" cy="91.543" fx="94.366" fy="91.543" r="27.305" gradientTransform="matrix(3.33008 0 0 3.3075 -250.233 -239.574)" gradientUnits="userSpaceOnUse"/><linearGradient id="a"><stop style="stop-color:currentColor;stop-opacity:1" offset=".278"/><stop style="stop-color:currentColor;stop-opacity:0" offset=".618"/></linearGradient></defs><path style="display:inline;fill:url(#b);fill-opacity:1;stroke:none;stroke-width:.596651;stroke-dasharray:none;stroke-opacity:1" d="M59.97 0a64.072 64.114 0 0 0-4.591.456 2.9 2.9 0 0 0 2.121.917A2.9 2.9 0 0 0 59.97 0zm8.085.002a2.901 2.901 0 0 0 2.47 1.371c.836 0 1.589-.351 2.118-.914a64.072 64.114 0 0 0-4.588-.457ZM57.5 6.977c-1.76 0-3.188 1.418-3.188 3.166 0 1.75 1.428 3.167 3.188 3.167 1.761 0 3.188-1.418 3.188-3.167 0-1.748-1.427-3.166-3.188-3.166zm13.025 0c-1.76 0-3.189 1.418-3.189 3.166 0 1.75 1.428 3.167 3.189 3.167 1.76 0 3.188-1.418 3.188-3.167 0-1.748-1.428-3.166-3.188-3.166zm-24.753.288a2.888 2.888 0 0 0-2.898 2.878 2.888 2.888 0 0 0 2.898 2.879c1.6 0 2.898-1.289 2.898-2.879a2.888 2.888 0 0 0-2.898-2.878zm36.48 0a2.888 2.888 0 0 0-2.898 2.878 2.888 2.888 0 0 0 2.899 2.879c1.6 0 2.898-1.289 2.898-2.879a2.888 2.888 0 0 0-2.898-2.878zm-48.208.288c-.192 0-.38.02-.56.06a64.072 64.114 0 0 0-1.322.736 2.573 2.573 0 0 0-.726 1.794 2.6 2.6 0 0 0 2.608 2.591 2.6 2.6 0 0 0 2.608-2.59 2.6 2.6 0 0 0-2.608-2.591zm59.937 0a2.6 2.6 0 0 0-2.609 2.59 2.6 2.6 0 0 0 2.61 2.591 2.6 2.6 0 0 0 2.608-2.59c0-.682-.266-1.302-.699-1.765a64.072 64.114 0 0 0-1.39-.775 2.634 2.634 0 0 0-.52-.051Zm-36.48 10.785c-1.922 0-3.48 1.546-3.48 3.454 0 1.907 1.558 3.454 3.48 3.454 1.92 0 3.477-1.547 3.477-3.454 0-1.908-1.557-3.454-3.478-3.454zm13.024 0c-1.921 0-3.479 1.546-3.479 3.454 0 1.907 1.558 3.454 3.479 3.454 1.92 0 3.477-1.547 3.477-3.454 0-1.908-1.556-3.454-3.477-3.454zm-24.753.287c-1.76 0-3.188 1.418-3.188 3.167 0 1.749 1.427 3.166 3.188 3.166 1.76 0 3.188-1.417 3.188-3.166 0-1.75-1.428-3.167-3.188-3.167zm36.48 0c-1.76 0-3.187 1.418-3.187 3.167 0 1.749 1.427 3.166 3.188 3.166 1.76 0 3.188-1.417 3.188-3.166 0-1.75-1.428-3.167-3.188-3.167zm-48.208.288a2.888 2.888 0 0 0-2.898 2.879 2.888 2.888 0 0 0 2.898 2.878c1.6 0 2.898-1.289 2.898-2.878a2.888 2.888 0 0 0-2.898-2.879zm59.937 0a2.889 2.889 0 0 0-2.899 2.879 2.889 2.889 0 0 0 2.9 2.878c1.6 0 2.897-1.289 2.897-2.878a2.888 2.888 0 0 0-2.898-2.879zm-71.666.288a2.6 2.6 0 0 0-2.608 2.59 2.6 2.6 0 0 0 2.608 2.591 2.6 2.6 0 0 0 2.609-2.59 2.6 2.6 0 0 0-2.609-2.591zm83.394 0a2.6 2.6 0 0 0-2.608 2.59 2.6 2.6 0 0 0 2.608 2.591 2.6 2.6 0 0 0 2.608-2.59 2.6 2.6 0 0 0-2.608-2.591zM57.5 29.698c-2.08 0-3.768 1.676-3.768 3.743 0 2.066 1.687 3.742 3.768 3.742 2.081 0 3.768-1.676 3.768-3.742 0-2.067-1.687-3.743-3.768-3.743zm13.025 0c-2.081 0-3.768 1.676-3.768 3.743 0 2.066 1.687 3.742 3.768 3.742 2.08 0 3.767-1.676 3.767-3.742 0-2.067-1.686-3.743-3.767-3.743zm-24.753.288c-1.921 0-3.478 1.547-3.478 3.455 0 1.907 1.557 3.454 3.478 3.454 1.92 0 3.477-1.547 3.477-3.454 0-1.908-1.556-3.455-3.477-3.455zm36.48 0c-1.92 0-3.477 1.547-3.477 3.455 0 1.907 1.557 3.454 3.478 3.454 1.92 0 3.477-1.547 3.477-3.454 0-1.908-1.557-3.455-3.477-3.455zm-48.208.288c-1.76 0-3.189 1.418-3.189 3.167 0 1.748 1.428 3.166 3.189 3.166 1.76 0 3.188-1.418 3.188-3.166 0-1.75-1.427-3.167-3.188-3.167zm59.937 0c-1.761 0-3.188 1.418-3.188 3.167 0 1.748 1.427 3.166 3.188 3.166 1.76 0 3.187-1.418 3.187-3.166a3.177 3.177 0 0 0-3.187-3.167zm-71.666.288a2.888 2.888 0 0 0-2.898 2.879 2.888 2.888 0 0 0 2.898 2.878c1.601 0 2.899-1.289 2.899-2.878a2.888 2.888 0 0 0-2.899-2.879zm83.394 0a2.888 2.888 0 0 0-2.898 2.879 2.888 2.888 0 0 0 2.898 2.878c1.6 0 2.898-1.289 2.898-2.878a2.888 2.888 0 0 0-2.898-2.879zm-95.121.288a2.61 2.61 0 0 0-1.961.881 64.072 64.114 0 0 0-.525.92c-.08.249-.123.514-.123.79a2.6 2.6 0 0 0 2.609 2.59 2.6 2.6 0 0 0 2.608-2.59 2.6 2.6 0 0 0-2.608-2.591zm106.85 0a2.6 2.6 0 0 0-2.609 2.59 2.6 2.6 0 0 0 2.608 2.591 2.6 2.6 0 0 0 2.513-3.288 64.072 64.114 0 0 0-.618-1.083 2.608 2.608 0 0 0-1.895-.81zM57.5 41.06c-2.24 0-4.058 1.803-4.058 4.029s1.817 4.03 4.058 4.03c2.241 0 4.057-1.804 4.057-4.03s-1.816-4.03-4.057-4.03zm13.025 0c-2.241 0-4.058 1.803-4.058 4.029s1.817 4.03 4.058 4.03c2.24 0 4.057-1.804 4.057-4.03s-1.816-4.03-4.057-4.03zm-24.753.287c-2.081 0-3.768 1.675-3.768 3.742s1.687 3.742 3.768 3.742c2.08 0 3.767-1.675 3.767-3.742s-1.686-3.742-3.767-3.742zm36.48 0c-2.08 0-3.767 1.675-3.767 3.742s1.687 3.742 3.768 3.742c2.08 0 3.767-1.675 3.767-3.742s-1.686-3.742-3.767-3.742zm-48.208.288c-1.92 0-3.478 1.546-3.478 3.454 0 1.908 1.557 3.454 3.478 3.454 1.92 0 3.478-1.546 3.478-3.454 0-1.908-1.557-3.454-3.478-3.454zm59.937 0c-1.921 0-3.478 1.546-3.478 3.454 0 1.908 1.557 3.454 3.478 3.454 1.92 0 3.478-1.546 3.478-3.454 0-1.908-1.557-3.454-3.478-3.454zm-71.666.288c-1.76 0-3.187 1.417-3.187 3.166 0 1.749 1.427 3.166 3.187 3.166 1.761 0 3.188-1.417 3.188-3.166 0-1.749-1.427-3.166-3.188-3.166zm83.394 0c-1.76 0-3.189 1.417-3.189 3.166 0 1.749 1.428 3.166 3.189 3.166 1.76 0 3.188-1.417 3.188-3.166 0-1.749-1.427-3.166-3.188-3.166zm-95.121.288a2.888 2.888 0 0 0-2.899 2.878 2.888 2.888 0 0 0 2.899 2.879c1.6 0 2.898-1.29 2.898-2.879a2.888 2.888 0 0 0-2.898-2.878zm106.85 0a2.889 2.889 0 0 0-2.9 2.878 2.889 2.889 0 0 0 2.9 2.879c1.6 0 2.897-1.29 2.897-2.879a2.888 2.888 0 0 0-2.898-2.878zM57.5 52.42c-2.4 0-4.347 1.933-4.347 4.317 0 2.385 1.946 4.318 4.347 4.318 2.401 0 4.347-1.933 4.347-4.318 0-2.384-1.946-4.317-4.347-4.317zm13.025 0c-2.401 0-4.348 1.933-4.348 4.317 0 2.385 1.947 4.318 4.348 4.318 2.4 0 4.347-1.933 4.347-4.318 0-2.384-1.946-4.317-4.347-4.317zm-24.753.288c-2.241 0-4.057 1.804-4.057 4.03 0 2.225 1.816 4.03 4.057 4.03 2.24 0 4.058-1.805 4.058-4.03 0-2.226-1.817-4.03-4.058-4.03zm36.48 0c-2.24 0-4.057 1.804-4.057 4.03 0 2.225 1.817 4.03 4.058 4.03 2.24 0 4.057-1.805 4.057-4.03 0-2.226-1.816-4.03-4.057-4.03zm-48.208.287c-2.08 0-3.768 1.676-3.768 3.742 0 2.067 1.687 3.743 3.768 3.743 2.08 0 3.767-1.676 3.767-3.743 0-2.066-1.686-3.742-3.767-3.742zm59.937 0c-2.08 0-3.768 1.676-3.768 3.742 0 2.067 1.687 3.743 3.768 3.743 2.08 0 3.768-1.676 3.768-3.743 0-2.066-1.687-3.742-3.768-3.742zm-71.666.288c-1.92 0-3.477 1.547-3.477 3.454 0 1.908 1.557 3.455 3.477 3.455 1.921 0 3.478-1.547 3.478-3.455 0-1.907-1.557-3.454-3.478-3.454zm83.394 0c-1.92 0-3.478 1.547-3.478 3.454 0 1.908 1.557 3.455 3.478 3.455 1.92 0 3.478-1.547 3.478-3.455 0-1.907-1.557-3.454-3.478-3.454zm-95.121.288c-1.761 0-3.189 1.418-3.189 3.166 0 1.75 1.428 3.167 3.189 3.167 1.76 0 3.188-1.418 3.188-3.167 0-1.748-1.428-3.166-3.188-3.166zm106.85 0c-1.762 0-3.19 1.418-3.19 3.166 0 1.75 1.428 3.167 3.19 3.167a3.177 3.177 0 0 0 3.187-3.167c0-1.748-1.427-3.166-3.188-3.166zm-116.8.894a64.072 64.114 0 0 0-.542 4.877 2.878 2.878 0 0 0 1.661-2.605c0-.923-.438-1.745-1.119-2.272zm126.727.016a2.866 2.866 0 0 0-1.098 2.256c0 1.14.668 2.127 1.637 2.593a64.072 64.114 0 0 0-.54-4.849zM57.5 65.356c-2.4 0-4.347 1.933-4.347 4.317 0 2.385 1.946 4.318 4.347 4.318 2.401 0 4.347-1.933 4.347-4.318 0-2.384-1.946-4.317-4.347-4.317zm13.025 0c-2.401 0-4.348 1.933-4.348 4.317 0 2.385 1.947 4.318 4.348 4.318 2.4 0 4.347-1.933 4.347-4.318 0-2.384-1.946-4.317-4.347-4.317zm-24.753.288c-2.241 0-4.057 1.804-4.057 4.03 0 2.225 1.816 4.03 4.057 4.03 2.24 0 4.058-1.805 4.058-4.03 0-2.226-1.817-4.03-4.058-4.03zm36.48 0c-2.24 0-4.057 1.804-4.057 4.03 0 2.225 1.817 4.03 4.058 4.03 2.24 0 4.057-1.805 4.057-4.03 0-2.226-1.816-4.03-4.057-4.03zm-48.208.287c-2.08 0-3.768 1.676-3.768 3.742 0 2.067 1.687 3.743 3.768 3.743 2.08 0 3.767-1.676 3.767-3.743 0-2.066-1.686-3.742-3.767-3.742zm59.937 0c-2.08 0-3.768 1.676-3.768 3.742 0 2.067 1.687 3.743 3.768 3.743 2.08 0 3.768-1.676 3.768-3.743 0-2.066-1.687-3.742-3.768-3.742zm-71.666.288c-1.92 0-3.477 1.547-3.477 3.454 0 1.908 1.557 3.455 3.477 3.455 1.921 0 3.478-1.547 3.478-3.455 0-1.907-1.557-3.454-3.478-3.454zm83.394 0c-1.92 0-3.478 1.547-3.478 3.454 0 1.908 1.557 3.455 3.478 3.455 1.92 0 3.478-1.547 3.478-3.455 0-1.907-1.557-3.454-3.478-3.454zm-95.121.288c-1.761 0-3.189 1.418-3.189 3.166 0 1.75 1.428 3.167 3.189 3.167 1.76 0 3.188-1.418 3.188-3.167 0-1.748-1.428-3.166-3.188-3.166zm106.85 0c-1.762 0-3.19 1.418-3.19 3.166 0 1.75 1.428 3.167 3.19 3.167a3.177 3.177 0 0 0 3.187-3.167c0-1.748-1.427-3.166-3.188-3.166zM0 67.027a64.072 64.114 0 0 0 .441 5.06 2.872 2.872 0 0 0 1.316-2.414A2.878 2.878 0 0 0 0 67.027Zm128 .01a2.878 2.878 0 0 0-1.733 2.636c0 1.001.514 1.883 1.294 2.399a64.072 64.114 0 0 0 .439-5.035ZM57.5 77.292c-2.24 0-4.058 1.805-4.058 4.03 0 2.226 1.817 4.03 4.058 4.03 2.241 0 4.057-1.804 4.057-4.03 0-2.225-1.816-4.03-4.057-4.03zm13.025 0c-2.241 0-4.058 1.805-4.058 4.03 0 2.226 1.817 4.03 4.058 4.03 2.24 0 4.057-1.804 4.057-4.03 0-2.225-1.816-4.03-4.057-4.03zm-24.753.288c-2.081 0-3.768 1.676-3.768 3.742 0 2.067 1.687 3.742 3.768 3.742 2.08 0 3.767-1.675 3.767-3.742 0-2.066-1.686-3.742-3.767-3.742zm36.48 0c-2.08 0-3.767 1.676-3.767 3.742 0 2.067 1.687 3.742 3.768 3.742 2.08 0 3.767-1.675 3.767-3.742 0-2.066-1.686-3.742-3.767-3.742zm-48.208.288c-1.92 0-3.478 1.547-3.478 3.454 0 1.908 1.557 3.454 3.478 3.454 1.92 0 3.478-1.546 3.478-3.454 0-1.907-1.557-3.454-3.478-3.454zm59.937 0c-1.921 0-3.478 1.547-3.478 3.454 0 1.908 1.557 3.454 3.478 3.454 1.92 0 3.478-1.546 3.478-3.454 0-1.907-1.557-3.454-3.478-3.454zm-71.666.288c-1.76 0-3.187 1.418-3.187 3.166 0 1.749 1.427 3.167 3.187 3.167 1.761 0 3.188-1.418 3.188-3.167 0-1.748-1.427-3.166-3.188-3.166zm83.394 0c-1.76 0-3.189 1.418-3.189 3.166 0 1.749 1.428 3.167 3.189 3.167 1.76 0 3.188-1.418 3.188-3.167 0-1.748-1.427-3.166-3.188-3.166zm-95.121.288a2.888 2.888 0 0 0-2.899 2.878 2.888 2.888 0 0 0 2.899 2.879c1.6 0 2.898-1.289 2.898-2.879a2.888 2.888 0 0 0-2.898-2.878zm106.85 0a2.889 2.889 0 0 0-2.9 2.878 2.889 2.889 0 0 0 2.9 2.879c1.6 0 2.897-1.289 2.897-2.879a2.888 2.888 0 0 0-2.898-2.878zM57.5 89.229c-2.08 0-3.768 1.675-3.768 3.742 0 2.066 1.687 3.742 3.768 3.742 2.081 0 3.768-1.676 3.768-3.742 0-2.067-1.687-3.742-3.768-3.742zm13.025 0c-2.081 0-3.768 1.675-3.768 3.742 0 2.066 1.687 3.742 3.768 3.742 2.08 0 3.767-1.676 3.767-3.742 0-2.067-1.686-3.742-3.767-3.742zm-24.753.288c-1.921 0-3.478 1.546-3.478 3.454 0 1.907 1.557 3.454 3.478 3.454 1.92 0 3.477-1.547 3.477-3.454 0-1.908-1.556-3.454-3.477-3.454zm36.48 0c-1.92 0-3.477 1.546-3.477 3.454 0 1.907 1.557 3.454 3.478 3.454 1.92 0 3.477-1.547 3.477-3.454 0-1.908-1.557-3.454-3.477-3.454zm-48.208.287c-1.76 0-3.189 1.418-3.189 3.167 0 1.748 1.428 3.166 3.189 3.166 1.76 0 3.188-1.418 3.188-3.166 0-1.75-1.427-3.167-3.188-3.167zm59.937 0c-1.761 0-3.188 1.418-3.188 3.167 0 1.748 1.427 3.166 3.188 3.166 1.76 0 3.187-1.418 3.187-3.166 0-1.75-1.426-3.167-3.187-3.167zm-71.666.288a2.888 2.888 0 0 0-2.898 2.879c0 1.59 1.298 2.879 2.898 2.879 1.601 0 2.899-1.29 2.899-2.88a2.888 2.888 0 0 0-2.899-2.878zm83.394 0a2.888 2.888 0 0 0-2.898 2.879c0 1.59 1.297 2.879 2.898 2.879 1.6 0 2.898-1.29 2.898-2.88a2.888 2.888 0 0 0-2.898-2.878zm-95.121.288a2.6 2.6 0 0 0-2.609 2.59 2.6 2.6 0 0 0 2.609 2.591 2.6 2.6 0 0 0 2.608-2.59 2.6 2.6 0 0 0-2.608-2.591zm106.85 0a2.6 2.6 0 0 0-2.609 2.59 2.6 2.6 0 0 0 2.608 2.591 2.6 2.6 0 0 0 2.608-2.59 2.6 2.6 0 0 0-2.608-2.591zM57.5 101.165c-1.92 0-3.478 1.547-3.478 3.455 0 1.907 1.557 3.454 3.478 3.454 1.921 0 3.478-1.547 3.478-3.454 0-1.908-1.557-3.455-3.478-3.455zm13.025 0c-1.921 0-3.479 1.547-3.479 3.455 0 1.907 1.558 3.454 3.479 3.454 1.92 0 3.477-1.547 3.477-3.454 0-1.908-1.556-3.455-3.477-3.455zm-24.753.288c-1.76 0-3.188 1.418-3.188 3.166 0 1.75 1.427 3.167 3.188 3.167 1.76 0 3.188-1.418 3.188-3.167 0-1.748-1.428-3.166-3.188-3.166zm36.48 0c-1.76 0-3.187 1.418-3.187 3.166 0 1.75 1.427 3.167 3.188 3.167 1.76 0 3.188-1.418 3.188-3.167 0-1.748-1.428-3.166-3.188-3.166zm-48.208.288a2.888 2.888 0 0 0-2.898 2.879 2.888 2.888 0 0 0 2.898 2.878c1.6 0 2.898-1.288 2.898-2.878a2.888 2.888 0 0 0-2.898-2.879zm59.937 0a2.889 2.889 0 0 0-2.899 2.879 2.889 2.889 0 0 0 2.9 2.878c1.6 0 2.897-1.288 2.897-2.878a2.888 2.888 0 0 0-2.898-2.879zm-71.666.288a2.6 2.6 0 0 0-2.608 2.59 2.6 2.6 0 0 0 2.608 2.591 2.6 2.6 0 0 0 2.609-2.59 2.6 2.6 0 0 0-2.609-2.591zm83.394 0a2.6 2.6 0 0 0-2.608 2.59 2.6 2.6 0 0 0 2.608 2.591c1.44 0 2.608-1.16 2.608-2.59a2.6 2.6 0 0 0-2.608-2.591zM57.5 113.102c-1.76 0-3.188 1.418-3.188 3.167 0 1.748 1.428 3.165 3.188 3.165 1.761 0 3.188-1.417 3.188-3.165 0-1.749-1.427-3.167-3.188-3.167zm13.025 0c-1.76 0-3.189 1.418-3.189 3.167 0 1.748 1.428 3.165 3.189 3.165 1.76 0 3.188-1.417 3.188-3.165 0-1.749-1.428-3.167-3.188-3.167zm-24.753.288c-1.6 0-2.898 1.29-2.898 2.879a2.888 2.888 0 0 0 2.898 2.878c1.6 0 2.898-1.289 2.898-2.878 0-1.59-1.298-2.88-2.898-2.88zm36.48 0c-1.6 0-2.898 1.29-2.898 2.879a2.888 2.888 0 0 0 2.899 2.878c1.6 0 2.898-1.289 2.898-2.878 0-1.59-1.298-2.88-2.898-2.88zm-48.208.288a2.6 2.6 0 0 0-2.608 2.591 2.6 2.6 0 0 0 2.608 2.59 2.6 2.6 0 0 0 2.608-2.59 2.6 2.6 0 0 0-2.608-2.591zm59.937 0a2.6 2.6 0 0 0-2.609 2.591 2.6 2.6 0 0 0 2.61 2.59 2.6 2.6 0 0 0 2.608-2.59 2.6 2.6 0 0 0-2.609-2.591zm-36.48 11.36a2.893 2.893 0 0 0-2.855 2.376 64.072 64.114 0 0 0 5.751.586l.001-.083a2.888 2.888 0 0 0-2.898-2.878zm13.024 0a2.889 2.889 0 0 0-2.898 2.96 64.072 64.114 0 0 0 5.75-.587 2.893 2.893 0 0 0-2.852-2.372zm-24.753.288c-.117 0-.232.007-.345.024a64.072 64.114 0 0 0 2.009.573 2.608 2.608 0 0 0-1.664-.596zm36.48 0c-.627 0-1.202.22-1.652.587a64.072 64.114 0 0 0 1.98-.567 2.668 2.668 0 0 0-.327-.02z"/></svg>