<?xml version="1.0" encoding="UTF-8" standalone="no"?>
<!-- Created with Inkscape (http://www.inkscape.org/) -->

<svg
   width="128mm"
   height="128mm"
   viewBox="0 0 128 128"
   version="1.1"
   id="svg1"
   xml:space="preserve"
   sodipodi:docname="icon.svg"
   inkscape:export-filename="unblur-icon.svg"
   inkscape:export-xdpi="25.4"
   inkscape:export-ydpi="25.4"
   inkscape:version="1.4.2 (f4327f4, 2025-05-13)"
   xmlns:inkscape="http://www.inkscape.org/namespaces/inkscape"
   xmlns:sodipodi="http://sodipodi.sourceforge.net/DTD/sodipodi-0.dtd"
   xmlns:xlink="http://www.w3.org/1999/xlink"
   xmlns="http://www.w3.org/2000/svg"
   xmlns:svg="http://www.w3.org/2000/svg"><sodipodi:namedview
     id="namedview1"
     pagecolor="#505050"
     bordercolor="#eeeeee"
     borderopacity="1"
     inkscape:showpageshadow="0"
     inkscape:pageopacity="0"
     inkscape:pagecheckerboard="0"
     inkscape:deskcolor="#505050"
     inkscape:document-units="mm"
     inkscape:zoom="1.0026783"
     inkscape:cx="175.52987"
     inkscape:cy="263.29481"
     inkscape:window-width="1600"
     inkscape:window-height="930"
     inkscape:window-x="-6"
     inkscape:window-y="-6"
     inkscape:window-maximized="1"
     inkscape:current-layer="layer1" /><defs
     id="defs1"><linearGradient
       id="linearGradient1"
       inkscape:collect="always"><stop
         style="stop-color:#25d366;stop-opacity:1;"
         offset="0.27842566"
         id="stop1" /><stop
         style="stop-color:#25d366;stop-opacity:0;"
         offset="0.61807579"
         id="stop2" /></linearGradient><inkscape:path-effect
       effect="mirror_symmetry"
       start_point="66.188028,91.623841"
       end_point="122.51932,91.623841"
       center_point="94.353673,91.623841"
       id="path-effect17"
       is_visible="true"
       lpeversion="1.2"
       lpesatellites=""
       mode="horizontal"
       discard_orig_path="false"
       fuse_paths="false"
       oposite_fuse="false"
       split_items="false"
       split_open="false"
       link_styles="false" /><inkscape:path-effect
       effect="mirror_symmetry"
       start_point="94.353673,63.458196"
       end_point="94.353673,119.78949"
       center_point="94.353673,91.623841"
       id="path-effect16"
       is_visible="true"
       lpeversion="1.2"
       lpesatellites=""
       mode="vertical"
       discard_orig_path="false"
       fuse_paths="false"
       oposite_fuse="false"
       split_items="false"
       split_open="false"
       link_styles="false" /><inkscape:path-effect
       effect="mirror_symmetry"
       start_point="45,1344.8598"
       end_point="810.66666,1344.8598"
       center_point="427.83333,1344.8598"
       id="path-effect15"
       is_visible="false"
       lpeversion="1.2"
       lpesatellites=""
       mode="Y"
       discard_orig_path="false"
       fuse_paths="false"
       oposite_fuse="false"
       split_items="false"
       split_open="false"
       link_styles="false" /><inkscape:path-effect
       effect="mirror_symmetry"
       start_point="427.83333,810.66666"
       end_point="427.83333,45"
       center_point="427.83333,427.83333"
       id="path-effect14"
       is_visible="true"
       lpeversion="1.2"
       lpesatellites=""
       mode="free"
       discard_orig_path="false"
       fuse_paths="false"
       oposite_fuse="false"
       split_items="false"
       split_open="false"
       link_styles="false" /><inkscape:path-effect
       effect="mirror_symmetry"
       start_point="1299.9718,47.976739"
       end_point="1299.9718,1324.3891"
       center_point="1299.9718,686.18292"
       id="path-effect13"
       is_visible="true"
       lpeversion="1.2"
       lpesatellites=""
       mode="free"
       discard_orig_path="false"
       fuse_paths="false"
       oposite_fuse="false"
       split_items="false"
       split_open="false"
       link_styles="false" /><inkscape:path-effect
       effect="mirror_symmetry"
       start_point="1250.625,42.5"
       end_point="1250.625,1318.9125"
       center_point="1250.625,680.70625"
       id="path-effect12"
       is_visible="true"
       lpeversion="1.2"
       lpesatellites=""
       mode="free"
       discard_orig_path="false"
       fuse_paths="false"
       oposite_fuse="false"
       split_items="false"
       split_open="false"
       link_styles="false" /><inkscape:path-effect
       effect="mirror_symmetry"
       start_point="1250.625,42.5"
       end_point="1250.625,1318.9125"
       center_point="1250.625,680.70625"
       id="path-effect11"
       is_visible="true"
       lpeversion="1.2"
       lpesatellites=""
       mode="free"
       discard_orig_path="false"
       fuse_paths="false"
       oposite_fuse="false"
       split_items="false"
       split_open="false"
       link_styles="false" /><inkscape:path-effect
       effect="mirror_symmetry"
       start_point="1250.62,41.5"
       end_point="1250.625,1318.9125"
       center_point="1250.6225,680.20625"
       id="path-effect10"
       is_visible="true"
       lpeversion="1.2"
       lpesatellites=""
       mode="free"
       discard_orig_path="false"
       fuse_paths="false"
       oposite_fuse="false"
       split_items="false"
       split_open="false"
       link_styles="false" /><inkscape:path-effect
       effect="tiling"
       id="path-effect5"
       is_visible="true"
       lpeversion="1.3.1"
       unit="px"
       seed="1;2038182634"
       lpesatellites=""
       num_rows="8"
       num_cols="8"
       gapx="5"
       gapy="5"
       offset="0"
       offset_type="true"
       scale="100"
       rotate="0"
       mirrorrowsx="false"
       mirrorrowsy="false"
       mirrorcolsx="false"
       mirrorcolsy="false"
       mirrortrans="false"
       shrink_interp="false"
       split_items="false"
       link_styles="false"
       interpolate_scalex="true"
       interpolate_scaley="true"
       interpolate_rotatex="false"
       interpolate_rotatey="true"
       random_scale="false"
       random_rotate="false"
       random_gap_y="false"
       random_gap_x="false"
       transformorigin="" /><inkscape:path-effect
       effect="tiling"
       id="path-effect1"
       is_visible="true"
       lpeversion="1.3.1"
       unit="px"
       seed="1;1"
       lpesatellites=""
       num_rows="10"
       num_cols="10"
       gapx="5"
       gapy="5"
       offset="0"
       offset_type="false"
       scale="0"
       rotate="0"
       mirrorrowsx="false"
       mirrorrowsy="false"
       mirrorcolsx="false"
       mirrorcolsy="false"
       mirrortrans="false"
       shrink_interp="false"
       split_items="false"
       link_styles="false"
       interpolate_scalex="false"
       interpolate_scaley="true"
       interpolate_rotatex="false"
       interpolate_rotatey="true"
       random_scale="false"
       random_rotate="false"
       random_gap_y="false"
       random_gap_x="false"
       transformorigin="" /><inkscape:path-effect
       effect="tiling"
       id="path-effect4"
       is_visible="true"
       lpeversion="1.3.1"
       unit="px"
       seed="1;1"
       lpesatellites=""
       num_rows="3"
       num_cols="3"
       gapx="0"
       gapy="0"
       offset="0"
       offset_type="false"
       scale="0"
       rotate="0"
       mirrorrowsx="false"
       mirrorrowsy="false"
       mirrorcolsx="false"
       mirrorcolsy="false"
       mirrortrans="false"
       shrink_interp="false"
       split_items="false"
       link_styles="false"
       interpolate_scalex="false"
       interpolate_scaley="false"
       interpolate_rotatex="false"
       interpolate_rotatey="true"
       random_scale="false"
       random_rotate="false"
       random_gap_y="false"
       random_gap_x="false"
       transformorigin="" /><inkscape:path-effect
       effect="clone_original"
       linkeditem=""
       id="path-effect3"
       is_visible="true"
       lpeversion="1"
       method="d"
       attributes=""
       css_properties=""
       allow_transforms="true" /><radialGradient
       inkscape:collect="always"
       xlink:href="#linearGradient1"
       id="radialGradient2"
       cx="94.365716"
       cy="91.543273"
       fx="94.365716"
       fy="91.543273"
       r="27.304984"
       gradientTransform="matrix(1,0,0,0.99474905,0,0.48068879)"
       gradientUnits="userSpaceOnUse" /><radialGradient
       inkscape:collect="always"
       xlink:href="#linearGradient1"
       id="radialGradient2-4"
       cx="94.365715"
       cy="91.543274"
       fx="94.365715"
       fy="91.543274"
       r="27.304983"
       gradientTransform="matrix(3.3300813,0,0,3.3075034,-250.23327,-239.57375)"
       gradientUnits="userSpaceOnUse" /><radialGradient
       inkscape:collect="always"
       xlink:href="#linearGradient1"
       id="radialGradient2-4-7"
       cx="94.365715"
       cy="91.543274"
       fx="94.365715"
       fy="91.543274"
       r="27.304983"
       gradientTransform="matrix(3.3300813,0,0,3.3075034,-250.23327,-239.57375)"
       gradientUnits="userSpaceOnUse" /></defs><g
     inkscape:groupmode="layer"
     id="layer2"
     inkscape:label="Main Icon"
     transform="matrix(1.2101476,0,0,1.2165361,-13.48256,-13.635565)"
     style="display:none"><path
       id="path1"
       style="display:inline;fill:none;fill-opacity:0;stroke:#25d366;stroke-width:9.26042;stroke-opacity:1"
       d="M 38.835506,105.16808 C 59.781834,117.9957 87.022173,113.03679 102.10418,93.65046 117.18619,74.264129 115.29387,46.640832 97.709065,29.492323 80.12426,12.343816 52.462154,11.145964 33.460792,26.710182 14.45943,42.2744 10.186332,69.630717 23.536054,90.248226 l -5.544387,19.950734 z"
       sodipodi:nodetypes="csssccc" /><path
       id="path4"
       mask="none"
       style="display:inline;fill:url(#radialGradient2);fill-opacity:1;stroke:none;stroke-width:0.179308;stroke-dasharray:none;stroke-opacity:1"
       d="m 93.151964,72.533757 a 19.240513,19.28266 0 0 0 -1.378836,0.137215 c 0.158886,0.169652 0.385602,0.27574 0.63708,0.27574 0.313797,0 0.588629,-0.165218 0.741756,-0.412955 z m 2.427667,5.6e-4 c 0.153182,0.247474 0.428157,0.412395 0.741756,0.412395 0.251047,0 0.477109,-0.10566 0.635952,-0.274805 a 19.240513,19.28266 0 0 0 -1.377708,-0.13759 z m -3.169423,2.097865 c -0.528726,0 -0.957499,0.426333 -0.957499,0.952284 0,0.52596 0.428773,0.952283 0.957499,0.952283 0.528734,0 0.95731,-0.426323 0.95731,-0.952283 0,-0.525951 -0.428576,-0.952284 -0.95731,-0.952284 z m 3.911179,0 c -0.528733,0 -0.957499,0.426333 -0.957499,0.952284 0,0.52596 0.428766,0.952283 0.957499,0.952283 0.528725,0 0.95731,-0.426323 0.95731,-0.952283 0,-0.525951 -0.428585,-0.952284 -0.95731,-0.952284 z m -7.433157,0.08655 c -0.480661,0 -0.8703,0.387592 -0.8703,0.86573 0,0.478142 0.389639,0.865729 0.8703,0.865729 0.480663,0 0.870299,-0.387587 0.870299,-0.865729 0,-0.478138 -0.389636,-0.86573 -0.870299,-0.86573 z m 10.954947,0 c -0.480659,0 -0.870299,0.387592 -0.870299,0.86573 0,0.478142 0.38964,0.865729 0.870299,0.865729 0.480663,0 0.870303,-0.387587 0.870303,-0.865729 0,-0.478138 -0.38964,-0.86573 -0.870303,-0.86573 z m -14.476738,0.08655 c -0.05774,0 -0.114014,0.0062 -0.168196,0.01795 a 19.240513,19.28266 0 0 0 -0.396906,0.221527 c -0.135187,0.140021 -0.218186,0.330235 -0.218186,0.539702 0,0.430326 0.35069,0.779174 0.783288,0.779174 0.432597,0 0.783289,-0.348848 0.783289,-0.779174 0,-0.430316 -0.350692,-0.779175 -0.783289,-0.779175 z m 17.998721,0 c -0.4326,0 -0.78348,0.348859 -0.78348,0.779175 0,0.430326 0.35088,0.779174 0.78348,0.779174 0.43253,0 0.78328,-0.348848 0.78328,-0.779174 0,-0.204943 -0.0797,-0.39144 -0.20973,-0.530542 a 19.240513,19.28266 0 0 0 -0.4172,-0.233117 c -0.0505,-0.01019 -0.10279,-0.01552 -0.15635,-0.01552 z m -10.954952,3.243633 c -0.57679,0 -1.04451,0.46507 -1.04451,1.038838 0,0.573763 0.46772,1.038837 1.04451,1.038837 0.576798,0 1.044321,-0.465074 1.044321,-1.038837 0,-0.573768 -0.467523,-1.038838 -1.044321,-1.038838 z m 3.911179,0 c -0.576799,0 -1.04451,0.46507 -1.04451,1.038838 0,0.573763 0.467711,1.038837 1.04451,1.038837 0.576791,0 1.044322,-0.465074 1.044322,-1.038837 0,-0.573768 -0.467531,-1.038838 -1.044322,-1.038838 z m -7.433157,0.08655 c -0.528727,0 -0.957311,0.426329 -0.957311,0.952284 0,0.52596 0.428584,0.952283 0.957311,0.952283 0.528729,0 0.95731,-0.426323 0.95731,-0.952283 0,-0.525955 -0.428581,-0.952284 -0.95731,-0.952284 z m 10.954947,0 c -0.528736,0 -0.95731,0.426329 -0.95731,0.952284 0,0.52596 0.428574,0.952283 0.95731,0.952283 0.528703,0 0.957313,-0.426323 0.957313,-0.952283 0,-0.525955 -0.42861,-0.952284 -0.957313,-0.952284 z m -14.476738,0.08655 c -0.480664,0 -0.870299,0.38759 -0.870299,0.86573 0,0.478138 0.389635,0.865729 0.870299,0.865729 0.480663,0 0.8703,-0.387591 0.8703,-0.865729 0,-0.47814 -0.389637,-0.86573 -0.8703,-0.86573 z m 17.998721,0 c -0.48066,0 -0.87049,0.38759 -0.87049,0.86573 0,0.478138 0.38983,0.865729 0.87049,0.865729 0.48063,0 0.87011,-0.387591 0.87011,-0.865729 0,-0.47814 -0.38948,-0.86573 -0.87011,-0.86573 z m -21.520699,0.08656 c -0.432594,0 -0.783288,0.348855 -0.783288,0.779175 0,0.430325 0.350694,0.779174 0.783288,0.779174 0.432588,0 0.783288,-0.348849 0.783288,-0.779174 0,-0.43032 -0.3507,-0.779175 -0.783288,-0.779175 z m 25.042489,0 c -0.43264,0 -0.78329,0.348855 -0.78329,0.779175 0,0.430325 0.35065,0.779174 0.78329,0.779174 0.43261,0 0.7831,-0.348849 0.7831,-0.779174 0,-0.43032 -0.35049,-0.779175 -0.7831,-0.779175 z m -14.476742,3.157079 c -0.624857,0 -1.131521,0.504 -1.131521,1.125578 0,0.621575 0.506664,1.125392 1.131521,1.125392 0.624864,0 1.131333,-0.503817 1.131333,-1.125392 0,-0.621578 -0.506469,-1.125578 -1.131333,-1.125578 z m 3.911179,0 c -0.624864,0 -1.131521,0.504 -1.131521,1.125578 0,0.621575 0.506657,1.125392 1.131521,1.125392 0.624858,0 1.131333,-0.503817 1.131333,-1.125392 0,-0.621578 -0.506475,-1.125578 -1.131333,-1.125578 z m -7.433157,0.08655 c -0.576792,0 -1.044322,0.465259 -1.044322,1.039024 0,0.573766 0.46753,1.038838 1.044322,1.038838 0.576791,0 1.044321,-0.465072 1.044321,-1.038838 0,-0.573765 -0.46753,-1.039024 -1.044321,-1.039024 z m 10.954947,0 c -0.576803,0 -1.044322,0.465259 -1.044322,1.039024 0,0.573766 0.467519,1.038838 1.044322,1.038838 0.576763,0 1.044323,-0.465072 1.044323,-1.038838 0,-0.573765 -0.46756,-1.039024 -1.044323,-1.039024 z m -14.476738,0.08655 c -0.528727,0 -0.957498,0.426518 -0.957498,0.95247 0,0.525959 0.428771,0.952284 0.957498,0.952284 0.528727,0 0.957311,-0.426325 0.957311,-0.952284 0,-0.525952 -0.428584,-0.95247 -0.957311,-0.95247 z m 17.998721,0 c -0.52885,0 -0.9575,0.426518 -0.9575,0.95247 0,0.525959 0.42865,0.952284 0.9575,0.952284 0.5287,0 0.95712,-0.426325 0.95712,-0.952284 0,-0.525952 -0.42842,-0.95247 -0.95712,-0.95247 z m -21.520699,0.08674 c -0.480661,0 -0.870299,0.387595 -0.870299,0.865729 0,0.478148 0.389638,0.86573 0.870299,0.86573 0.480661,0 0.8703,-0.387582 0.8703,-0.86573 0,-0.478134 -0.389639,-0.865729 -0.8703,-0.865729 z m 25.042489,0 c -0.48066,0 -0.8703,0.387595 -0.8703,0.865729 0,0.478148 0.38964,0.86573 0.8703,0.86573 0.48064,0 0.87029,-0.387582 0.87029,-0.86573 0,-0.478134 -0.38965,-0.865729 -0.87029,-0.865729 z m -28.564279,0.08656 c -0.234586,0 -0.445227,0.102552 -0.588782,0.265083 a 19.240513,19.28266 0 0 0 -0.157484,0.276488 c -0.02408,0.0749 -0.03702,0.154758 -0.03702,0.237603 0,0.430326 0.350693,0.779175 0.783288,0.779175 0.432597,0 0.783288,-0.348849 0.783288,-0.779175 0,-0.430319 -0.350691,-0.779174 -0.783288,-0.779174 z m 32.086249,0 c -0.4326,0 -0.78328,0.348855 -0.78328,0.779174 0,0.430326 0.35068,0.779175 0.78328,0.779175 0.43249,0 0.7831,-0.348849 0.7831,-0.779175 0,-0.07262 -0.01,-0.143053 -0.0286,-0.209749 a 19.240513,19.28266 0 0 0 -0.18568,-0.32584 c -0.14277,-0.150068 -0.34481,-0.243585 -0.56886,-0.243585 z m -17.998712,3.070524 c -0.672924,0 -1.218532,0.54256 -1.218532,1.211946 0,0.669398 0.545608,1.212133 1.218532,1.212133 0.672931,0 1.218344,-0.542735 1.218344,-1.212133 0,-0.669386 -0.545413,-1.211946 -1.218344,-1.211946 z m 3.911179,0 c -0.672938,0 -1.218532,0.54256 -1.218532,1.211946 0,0.669398 0.545594,1.212133 1.218532,1.212133 0.672923,0 1.218344,-0.542735 1.218344,-1.212133 0,-0.669386 -0.545421,-1.211946 -1.218344,-1.211946 z m -7.433157,0.08656 c -0.624857,0 -1.131333,0.503813 -1.131333,1.125391 0,0.621579 0.506476,1.125392 1.131333,1.125392 0.624859,0 1.131332,-0.503813 1.131332,-1.125392 0,-0.621578 -0.506473,-1.125391 -1.131332,-1.125391 z m 10.954947,0 c -0.624868,0 -1.131333,0.503813 -1.131333,1.125391 0,0.621579 0.506465,1.125392 1.131333,1.125392 0.624883,0 1.131333,-0.503813 1.131333,-1.125392 0,-0.621578 -0.50645,-1.125391 -1.131333,-1.125391 z m -14.476738,0.08655 c -0.576792,0 -1.044509,0.465069 -1.044509,1.038837 0,0.573764 0.467717,1.038838 1.044509,1.038838 0.576793,0 1.044322,-0.465074 1.044322,-1.038838 0,-0.573768 -0.467529,-1.038837 -1.044322,-1.038837 z m 17.998721,0 c -0.5769,0 -1.04451,0.465069 -1.04451,1.038837 0,0.573764 0.46761,1.038838 1.04451,1.038838 0.57674,0 1.04432,-0.465074 1.04432,-1.038838 0,-0.573768 -0.46758,-1.038837 -1.04432,-1.038837 z m -21.520699,0.08655 c -0.528727,0 -0.95731,0.42633 -0.95731,0.952283 0,0.525956 0.428583,0.952284 0.95731,0.952284 0.528726,0 0.957311,-0.426328 0.957311,-0.952284 0,-0.525953 -0.428585,-0.952283 -0.957311,-0.952283 z m 25.042489,0 c -0.52876,0 -0.9575,0.42633 -0.9575,0.952283 0,0.525956 0.42874,0.952284 0.9575,0.952284 0.52869,0 0.95731,-0.426328 0.95731,-0.952284 0,-0.525953 -0.42862,-0.952283 -0.95731,-0.952283 z m -28.564279,0.08655 c -0.48066,0 -0.870299,0.3876 -0.870299,0.865729 0,0.478146 0.389639,0.865729 0.870299,0.865729 0.480664,0 0.870299,-0.387583 0.870299,-0.865729 0,-0.478129 -0.389635,-0.865729 -0.870299,-0.865729 z m 32.086249,0 c -0.48073,0 -0.87048,0.3876 -0.87048,0.865729 0,0.478146 0.38975,0.865729 0.87048,0.865729 0.48067,0 0.87012,-0.387583 0.87012,-0.865729 0,-0.478129 -0.38945,-0.865729 -0.87012,-0.865729 z m -17.998712,3.070525 c -0.720989,0 -1.305543,0.581305 -1.305543,1.2985 0,0.717212 0.584554,1.298687 1.305543,1.298687 0.720997,0 1.305355,-0.581475 1.305355,-1.298687 0,-0.717195 -0.584358,-1.2985 -1.305355,-1.2985 z m 3.911179,0 c -0.721003,0 -1.305543,0.581305 -1.305543,1.2985 0,0.717212 0.58454,1.298687 1.305543,1.298687 0.720987,0 1.305355,-0.581475 1.305355,-1.298687 0,-0.717195 -0.584368,-1.2985 -1.305355,-1.2985 z m -7.433157,0.08655 c -0.672922,0 -1.218344,0.542562 -1.218344,1.211946 0,0.6694 0.545422,1.212133 1.218344,1.212133 0.672925,0 1.218531,-0.542733 1.218531,-1.212133 0,-0.669384 -0.545606,-1.211946 -1.218531,-1.211946 z m 10.954947,0 c -0.672923,0 -1.218532,0.542562 -1.218532,1.211946 0,0.6694 0.545609,1.212133 1.218532,1.212133 0.672933,0 1.218343,-0.542733 1.218343,-1.212133 0,-0.669384 -0.54541,-1.211946 -1.218343,-1.211946 z m -14.476738,0.08655 c -0.624858,0 -1.13152,0.503814 -1.13152,1.125391 0,0.621587 0.506662,1.125579 1.13152,1.125579 0.62486,0 1.131333,-0.503992 1.131333,-1.125579 0,-0.621577 -0.506473,-1.125391 -1.131333,-1.125391 z m 17.998721,0 c -0.62491,0 -1.13153,0.503814 -1.13153,1.125391 0,0.621587 0.50662,1.125579 1.13153,1.125579 0.62485,0 1.13133,-0.503992 1.13133,-1.125579 0,-0.621577 -0.50648,-1.125391 -1.13133,-1.125391 z m -21.520699,0.08655 c -0.576799,0 -1.044321,0.465073 -1.044321,1.038837 0,0.573766 0.467522,1.039025 1.044321,1.039025 0.576792,0 1.044322,-0.465259 1.044322,-1.039025 0,-0.573764 -0.46753,-1.038837 -1.044322,-1.038837 z m 25.042489,0 c -0.57679,0 -1.04433,0.465073 -1.04433,1.038837 0,0.573766 0.46754,1.039025 1.04433,1.039025 0.57679,0 1.04432,-0.465259 1.04432,-1.039025 0,-0.573764 -0.46753,-1.038837 -1.04432,-1.038837 z m -28.564279,0.08655 c -0.528726,0 -0.957498,0.426338 -0.957498,0.952283 0,0.525961 0.428772,0.952471 0.957498,0.952471 0.528727,0 0.957311,-0.42651 0.957311,-0.952471 0,-0.525945 -0.428584,-0.952283 -0.957311,-0.952283 z m 32.086249,0 c -0.5288,0 -0.95749,0.426338 -0.95749,0.952283 0,0.525961 0.42869,0.952471 0.95749,0.952471 0.52872,0 0.95713,-0.42651 0.95713,-0.952471 0,-0.525945 -0.42841,-0.952283 -0.95713,-0.952283 z m -35.073945,0.268823 a 19.240513,19.28266 0 0 0 -0.162746,1.466748 c 0.294876,-0.13863 0.498763,-0.437315 0.498763,-0.783288 0,-0.277813 -0.131497,-0.525048 -0.336017,-0.68346 z m 38.055065,0.005 c -0.20084,0.158589 -0.32963,0.403515 -0.32963,0.678413 0,0.343066 0.20058,0.639614 0.49144,0.779736 a 19.240513,19.28266 0 0 0 -0.16181,-1.458149 z m -20.979832,3.270553 c -0.720989,0 -1.305543,0.581293 -1.305543,1.2985 0,0.717209 0.584554,1.298687 1.305543,1.298687 0.720997,0 1.305355,-0.581478 1.305355,-1.298687 0,-0.717207 -0.584358,-1.2985 -1.305355,-1.2985 z m 3.911179,0 c -0.721003,0 -1.305543,0.581293 -1.305543,1.2985 0,0.717209 0.58454,1.298687 1.305543,1.298687 0.720987,0 1.305355,-0.581478 1.305355,-1.298687 0,-0.717207 -0.584368,-1.2985 -1.305355,-1.2985 z m -7.433157,0.08655 c -0.672922,0 -1.218344,0.542554 -1.218344,1.211946 0,0.669395 0.545422,1.212133 1.218344,1.212133 0.672925,0 1.218531,-0.542738 1.218531,-1.212133 0,-0.669392 -0.545606,-1.211946 -1.218531,-1.211946 z m 10.954947,0 c -0.672923,0 -1.218532,0.542554 -1.218532,1.211946 0,0.669395 0.545609,1.212133 1.218532,1.212133 0.672933,0 1.218343,-0.542738 1.218343,-1.212133 0,-0.669392 -0.54541,-1.211946 -1.218343,-1.211946 z m -14.476738,0.08656 c -0.624858,0 -1.13152,0.503813 -1.13152,1.125391 0,0.621576 0.506662,1.125579 1.13152,1.125579 0.62486,0 1.131333,-0.504003 1.131333,-1.125579 0,-0.621578 -0.506473,-1.125391 -1.131333,-1.125391 z m 17.998721,0 c -0.62491,0 -1.13153,0.503813 -1.13153,1.125391 0,0.621576 0.50662,1.125579 1.13153,1.125579 0.62485,0 1.13133,-0.504003 1.13133,-1.125579 0,-0.621578 -0.50648,-1.125391 -1.13133,-1.125391 z m -21.520699,0.08655 c -0.576799,0 -1.044321,0.46507 -1.044321,1.038837 0,0.573764 0.467522,1.039025 1.044321,1.039025 0.576792,0 1.044322,-0.465261 1.044322,-1.039025 0,-0.573767 -0.46753,-1.038837 -1.044322,-1.038837 z m 25.042489,0 c -0.57679,0 -1.04433,0.46507 -1.04433,1.038837 0,0.573764 0.46754,1.039025 1.04433,1.039025 0.57679,0 1.04432,-0.465261 1.04432,-1.039025 0,-0.573767 -0.46753,-1.038837 -1.04432,-1.038837 z m -28.564279,0.08655 c -0.528726,0 -0.957498,0.42633 -0.957498,0.952283 0,0.525951 0.428772,0.952471 0.957498,0.952471 0.528727,0 0.957311,-0.42652 0.957311,-0.952471 0,-0.525953 -0.428584,-0.952283 -0.957311,-0.952283 z m 32.086249,0 c -0.5288,0 -0.95749,0.42633 -0.95749,0.952283 0,0.525951 0.42869,0.952471 0.95749,0.952471 0.52872,0 0.95713,-0.42652 0.95713,-0.952471 0,-0.525953 -0.42841,-0.952283 -0.95713,-0.952283 z m -35.265632,0.156284 a 19.240513,19.28266 0 0 0 0.13249,1.521709 c 0.238018,-0.154499 0.395214,-0.4219 0.395214,-0.72571 0,-0.357173 -0.217317,-0.663699 -0.527704,-0.795999 z m 38.437502,0.0032 c -0.30647,0.133973 -0.52038,0.438457 -0.52038,0.792821 0,0.300988 0.15434,0.566278 0.38864,0.72141 a 19.240513,19.28266 0 0 0 0.13174,-1.514231 z m -21.170582,3.084171 c -0.672924,0 -1.218532,0.54274 -1.218532,1.212133 0,0.669398 0.545608,1.211946 1.218532,1.211946 0.672931,0 1.218344,-0.542548 1.218344,-1.211946 0,-0.669393 -0.545413,-1.212133 -1.218344,-1.212133 z m 3.911179,0 c -0.672938,0 -1.218532,0.54274 -1.218532,1.212133 0,0.669398 0.545594,1.211946 1.218532,1.211946 0.672923,0 1.218344,-0.542548 1.218344,-1.211946 0,-0.669393 -0.545421,-1.212133 -1.218344,-1.212133 z m -7.433157,0.08674 c -0.624857,0 -1.131333,0.503815 -1.131333,1.125392 0,0.621586 0.506476,1.125392 1.131333,1.125392 0.624859,0 1.131332,-0.503806 1.131332,-1.125392 0,-0.621577 -0.506473,-1.125392 -1.131332,-1.125392 z m 10.954947,0 c -0.624868,0 -1.131333,0.503815 -1.131333,1.125392 0,0.621586 0.506465,1.125392 1.131333,1.125392 0.624883,0 1.131333,-0.503806 1.131333,-1.125392 0,-0.621577 -0.50645,-1.125392 -1.131333,-1.125392 z m -14.476738,0.08655 c -0.576792,0 -1.044509,0.465072 -1.044509,1.038837 0,0.573766 0.467717,1.038838 1.044509,1.038838 0.576793,0 1.044322,-0.465072 1.044322,-1.038838 0,-0.573765 -0.467529,-1.038837 -1.044322,-1.038837 z m 17.998721,0 c -0.5769,0 -1.04451,0.465072 -1.04451,1.038837 0,0.573766 0.46761,1.038838 1.04451,1.038838 0.57674,0 1.04432,-0.465072 1.04432,-1.038838 0,-0.573765 -0.46758,-1.038837 -1.04432,-1.038837 z m -21.520699,0.08655 c -0.528727,0 -0.95731,0.426337 -0.95731,0.952283 0,0.525949 0.428583,0.952284 0.95731,0.952284 0.528726,0 0.957311,-0.426335 0.957311,-0.952284 0,-0.525946 -0.428585,-0.952283 -0.957311,-0.952283 z m 25.042489,0 c -0.52876,0 -0.9575,0.426337 -0.9575,0.952283 0,0.525949 0.42874,0.952284 0.9575,0.952284 0.52869,0 0.95731,-0.426335 0.95731,-0.952284 0,-0.525946 -0.42862,-0.952283 -0.95731,-0.952283 z m -28.564279,0.08655 c -0.48066,0 -0.870299,0.387596 -0.870299,0.865729 0,0.478141 0.389639,0.865729 0.870299,0.865729 0.480664,0 0.870299,-0.387588 0.870299,-0.865729 0,-0.478133 -0.389635,-0.865729 -0.870299,-0.865729 z m 32.086249,0 c -0.48073,0 -0.87048,0.387596 -0.87048,0.865729 0,0.478141 0.38975,0.865729 0.87048,0.865729 0.48067,0 0.87012,-0.387588 0.87012,-0.865729 0,-0.478133 -0.38945,-0.865729 -0.87012,-0.865729 z m -17.998712,3.243633 c -0.624857,0 -1.131521,0.503832 -1.131521,1.125397 0,0.62158 0.506664,1.12557 1.131521,1.12557 0.624864,0 1.131333,-0.50399 1.131333,-1.12557 0,-0.621565 -0.506469,-1.125397 -1.131333,-1.125397 z m 3.911179,0 c -0.624864,0 -1.131521,0.503832 -1.131521,1.125397 0,0.62158 0.506657,1.12557 1.131521,1.12557 0.624858,0 1.131333,-0.50399 1.131333,-1.12557 0,-0.621565 -0.506475,-1.125397 -1.131333,-1.125397 z m -7.433157,0.08656 c -0.576792,0 -1.044322,0.465085 -1.044322,1.038842 0,0.57376 0.46753,1.03902 1.044322,1.03902 0.576791,0 1.044321,-0.46526 1.044321,-1.03902 0,-0.573757 -0.46753,-1.038842 -1.044321,-1.038842 z m 10.954947,0 c -0.576803,0 -1.044322,0.465085 -1.044322,1.038842 0,0.57376 0.467519,1.03902 1.044322,1.03902 0.576763,0 1.044323,-0.46526 1.044323,-1.03902 0,-0.573757 -0.46756,-1.038842 -1.044323,-1.038842 z m -14.476738,0.08655 c -0.528727,0 -0.957498,0.426361 -0.957498,0.952288 0,0.52595 0.428771,0.95228 0.957498,0.95228 0.528727,0 0.957311,-0.42633 0.957311,-0.95228 0,-0.525927 -0.428584,-0.952288 -0.957311,-0.952288 z m 17.998721,0 c -0.52885,0 -0.9575,0.426361 -0.9575,0.952288 0,0.52595 0.42865,0.95228 0.9575,0.95228 0.5287,0 0.95712,-0.42633 0.95712,-0.95228 0,-0.525927 -0.42842,-0.952288 -0.95712,-0.952288 z m -21.520699,0.08655 c -0.480661,0 -0.870299,0.387634 -0.870299,0.865734 0,0.47814 0.389638,0.86591 0.870299,0.86591 0.480661,0 0.8703,-0.38777 0.8703,-0.86591 0,-0.4781 -0.389639,-0.865734 -0.8703,-0.865734 z m 25.042489,0 c -0.48066,0 -0.8703,0.387634 -0.8703,0.865734 0,0.47814 0.38964,0.86591 0.8703,0.86591 0.48064,0 0.87029,-0.38777 0.87029,-0.86591 0,-0.4781 -0.38965,-0.865734 -0.87029,-0.865734 z m -28.564279,0.08655 c -0.432595,0 -0.783288,0.34889 -0.783288,0.77918 0,0.43032 0.350693,0.77917 0.783288,0.77917 0.432597,0 0.783288,-0.34885 0.783288,-0.77917 0,-0.43029 -0.350691,-0.77918 -0.783288,-0.77918 z m 32.086249,0 c -0.4326,0 -0.78328,0.34889 -0.78328,0.77918 0,0.43032 0.35068,0.77917 0.78328,0.77917 0.43249,0 0.7831,-0.34885 0.7831,-0.77917 0,-0.43029 -0.35061,-0.77918 -0.7831,-0.77918 z m -17.998712,3.24363 c -0.57679,0 -1.04451,0.46528 -1.04451,1.03903 0,0.57377 0.46772,1.03884 1.04451,1.03884 0.576798,0 1.044321,-0.46507 1.044321,-1.03884 0,-0.57375 -0.467523,-1.03903 -1.044321,-1.03903 z m 3.911179,0 c -0.576799,0 -1.04451,0.46528 -1.04451,1.03903 0,0.57377 0.467711,1.03884 1.04451,1.03884 0.576791,0 1.044322,-0.46507 1.044322,-1.03884 0,-0.57375 -0.467531,-1.03903 -1.044322,-1.03903 z m -7.433157,0.0867 c -0.528727,0 -0.957311,0.42633 -0.957311,0.95229 0,0.52597 0.428584,0.95228 0.957311,0.95228 0.528729,0 0.95731,-0.42631 0.95731,-0.95228 0,-0.52596 -0.428581,-0.95229 -0.95731,-0.95229 z m 10.954947,0 c -0.528736,0 -0.95731,0.42633 -0.95731,0.95229 0,0.52597 0.428574,0.95228 0.95731,0.95228 0.528703,0 0.957313,-0.42631 0.957313,-0.95228 0,-0.52596 -0.42861,-0.95229 -0.957313,-0.95229 z m -14.476738,0.0866 c -0.480664,0 -0.870299,0.38759 -0.870299,0.86573 0,0.47818 0.389635,0.86573 0.870299,0.86573 0.480663,0 0.8703,-0.38755 0.8703,-0.86573 0,-0.47814 -0.389637,-0.86573 -0.8703,-0.86573 z m 17.998721,0 c -0.48066,0 -0.87049,0.38759 -0.87049,0.86573 0,0.47818 0.38983,0.86573 0.87049,0.86573 0.48063,0 0.87011,-0.38755 0.87011,-0.86573 0,-0.47814 -0.38948,-0.86573 -0.87011,-0.86573 z m -21.520699,0.0866 c -0.432594,0 -0.783288,0.34889 -0.783288,0.77918 0,0.43041 0.350694,0.77917 0.783288,0.77917 0.432588,0 0.783288,-0.34876 0.783288,-0.77917 0,-0.43029 -0.3507,-0.77918 -0.783288,-0.77918 z m 25.042489,0 c -0.43264,0 -0.78329,0.34889 -0.78329,0.77918 0,0.43041 0.35065,0.77917 0.78329,0.77917 0.43261,0 0.7831,-0.34876 0.7831,-0.77917 0,-0.43029 -0.35049,-0.77918 -0.7831,-0.77918 z m -14.476742,3.33019 c -0.528726,0 -0.957499,0.42654 -0.957499,0.95247 0,0.52594 0.428773,0.9521 0.957499,0.9521 0.528734,0 0.95731,-0.42616 0.95731,-0.9521 0,-0.52593 -0.428576,-0.95247 -0.95731,-0.95247 z m 3.911179,0 c -0.528733,0 -0.957499,0.42654 -0.957499,0.95247 0,0.52594 0.428766,0.9521 0.957499,0.9521 0.528725,0 0.95731,-0.42616 0.95731,-0.9521 0,-0.52593 -0.428585,-0.95247 -0.95731,-0.95247 z m -7.433157,0.0866 c -0.480661,0 -0.8703,0.38778 -0.8703,0.86592 0,0.47807 0.389639,0.86554 0.8703,0.86554 0.480663,0 0.870299,-0.38747 0.870299,-0.86554 0,-0.47814 -0.389636,-0.86592 -0.870299,-0.86592 z m 10.954947,0 c -0.480659,0 -0.870299,0.38778 -0.870299,0.86592 0,0.47807 0.38964,0.86554 0.870299,0.86554 0.480663,0 0.870303,-0.38747 0.870303,-0.86554 0,-0.47814 -0.38964,-0.86592 -0.870303,-0.86592 z m -14.476738,0.0866 c -0.432598,0 -0.783288,0.34902 -0.783288,0.77936 0,0.43029 0.35069,0.77899 0.783288,0.77899 0.432597,0 0.783289,-0.3487 0.783289,-0.77899 0,-0.43034 -0.350692,-0.77936 -0.783289,-0.77936 z m 17.998721,0 c -0.4326,0 -0.78348,0.34902 -0.78348,0.77936 0,0.43029 0.35088,0.77899 0.78348,0.77899 0.43253,0 0.78328,-0.3487 0.78328,-0.77899 0,-0.43034 -0.35075,-0.77936 -0.78328,-0.77936 z m -10.954952,3.41693 c -0.428837,0 -0.785276,0.30841 -0.857145,0.71449 a 19.240513,19.28266 0 0 0 1.727068,0.1761 c 2.37e-4,-0.008 3.76e-4,-0.0165 3.76e-4,-0.0249 0,-0.47813 -0.389635,-0.86573 -0.870299,-0.86573 z m 3.911179,0 c -0.480668,0 -0.870487,0.3876 -0.870487,0.86573 0,0.008 1.47e-4,0.0163 3.75e-4,0.0245 a 19.240513,19.28266 0 0 0 1.72688,-0.17666 c -0.07229,-0.40558 -0.428299,-0.71356 -0.856768,-0.71356 z m -7.433157,0.0865 c -0.03511,0 -0.06966,0.002 -0.103549,0.007 a 19.240513,19.28266 0 0 0 0.603252,0.17236 c -0.135615,-0.1119 -0.309739,-0.17909 -0.499703,-0.17909 z m 10.954947,0 c -0.188329,0 -0.361212,0.0661 -0.496321,0.17629 a 19.240513,19.28266 0 0 0 0.594796,-0.17031 c -0.03226,-0.004 -0.06511,-0.006 -0.09848,-0.006 z"
       transform="matrix(2.2722719,0,0,2.2722719,-150.39719,-144.19427)" /></g><g
     inkscape:groupmode="layer"
     id="layer1"
     inkscape:label="UnBlur"><path
       id="path4-5"
       mask="none"
       style="display:inline;fill:url(#radialGradient2-4);fill-opacity:1;stroke:none;stroke-width:0.596651;stroke-dasharray:none;stroke-opacity:1"
       d="M 59.9705 0 A 64.072471 64.114121 0 0 0 55.378532 0.4563029 C 55.907635 1.0203893 56.662924 1.3730428 57.500366 1.3730428 C 58.545335 1.3730428 59.460575 0.82371553 59.9705 0 z M 68.054761 0.001550293 C 68.56487 0.82439137 69.480584 1.3730428 70.524894 1.3730428 C 71.3609 1.3730428 72.113634 1.0218034 72.642594 0.45940348 A 64.072471 64.114121 0 0 0 68.054761 0.001550293 z M 57.500366 6.9773519 C 55.739666 6.9773519 54.31193 8.3947991 54.31193 10.143567 C 54.31193 11.892363 55.739666 13.309782 57.500366 13.309782 C 59.261094 13.309782 60.688285 11.892363 60.688285 10.143567 C 60.688285 8.3947991 59.261094 6.9773519 57.500366 6.9773519 z M 70.524894 6.9773519 C 68.764171 6.9773519 67.336458 8.3947991 67.336458 10.143567 C 67.336458 11.892363 68.764171 13.309782 70.524894 13.309782 C 72.285591 13.309782 73.712813 11.892363 73.712813 10.143567 C 73.712813 8.3947991 72.285591 6.9773519 70.524894 6.9773519 z M 45.771883 7.2646729 C 44.171243 7.2646729 42.873352 8.553776 42.873352 10.143567 C 42.873352 11.733371 44.171243 13.021944 45.771883 13.021944 C 47.372531 13.021944 48.669897 11.733371 48.669897 10.143567 C 48.669897 8.553776 47.372531 7.2646729 45.771883 7.2646729 z M 82.252861 7.2646729 C 80.652228 7.2646729 79.354329 8.553776 79.354329 10.143567 C 79.354329 11.733371 80.652228 13.021944 82.252861 13.021944 C 83.853508 13.021944 85.150875 11.733371 85.150875 10.143567 C 85.150875 8.553776 83.853508 7.2646729 82.252861 7.2646729 z M 34.043917 7.5525106 C 33.851639 7.5525106 33.664173 7.5733872 33.483744 7.6124552 A 64.072471 64.114121 0 0 0 32.161861 8.3488444 C 31.711677 8.81441 31.435291 9.4470958 31.435291 10.143567 C 31.435291 11.574385 32.603331 12.734106 34.043917 12.734106 C 35.484501 12.734106 36.652543 11.574385 36.652543 10.143567 C 36.652543 8.7127813 35.484501 7.5525106 34.043917 7.5525106 z M 93.981344 7.5525106 C 92.540752 7.5525106 91.372201 8.712782 91.372201 10.143567 C 91.372201 11.574384 92.540752 12.734106 93.981344 12.734106 C 95.421705 12.734106 96.589453 11.574384 96.589453 10.143567 C 96.589453 9.462139 96.324316 8.8418427 95.891305 8.3793335 A 64.072471 64.114121 0 0 0 94.501725 7.604187 C 94.333556 7.5703035 94.159704 7.5525106 93.981344 7.5525106 z M 57.500366 18.337382 C 55.579609 18.337382 54.022026 19.884194 54.022026 21.791951 C 54.022026 23.69969 55.579609 25.246004 57.500366 25.246004 C 59.421151 25.246004 60.977673 23.69969 60.977673 21.791951 C 60.977673 19.884194 59.421151 18.337382 57.500366 18.337382 z M 70.524894 18.337382 C 68.604106 18.337382 67.046554 19.884194 67.046554 21.791951 C 67.046554 23.69969 68.604106 25.246004 70.524894 25.246004 C 72.445655 25.246004 74.002718 23.69969 74.002718 21.791951 C 74.002718 19.884194 72.445655 18.337382 70.524894 18.337382 z M 45.771883 18.62522 C 44.01118 18.62522 42.583964 20.04317 42.583964 21.791951 C 42.583964 23.540748 44.01118 24.958167 45.771883 24.958167 C 47.532594 24.958167 48.959802 23.540748 48.959802 21.791951 C 48.959802 20.04317 47.532594 18.62522 45.771883 18.62522 z M 82.252861 18.62522 C 80.492128 18.62522 79.064941 20.04317 79.064941 21.791951 C 79.064941 23.540748 80.492128 24.958167 82.252861 24.958167 C 84.013485 24.958167 85.44078 23.540748 85.44078 21.791951 C 85.44078 20.04317 84.013485 18.62522 82.252861 18.62522 z M 34.043917 18.913057 C 32.443267 18.913057 31.145903 20.202153 31.145903 21.791951 C 31.145903 23.381742 32.443267 24.670329 34.043917 24.670329 C 35.644564 24.670329 36.941931 23.381742 36.941931 21.791951 C 36.941931 20.202153 35.644564 18.913057 34.043917 18.913057 z M 93.981344 18.913057 C 92.380707 18.913057 91.082296 20.202153 91.082296 21.791951 C 91.082296 23.381742 92.380707 24.670329 93.981344 24.670329 C 95.581881 24.670329 96.878841 23.381742 96.878841 21.791951 C 96.878841 20.202153 95.581881 18.913057 93.981344 18.913057 z M 22.315434 19.200895 C 20.874862 19.200895 19.706807 20.361153 19.706807 21.791951 C 19.706807 23.222764 20.874862 24.382491 22.315434 24.382491 C 23.755988 24.382491 24.92406 23.222764 24.92406 21.791951 C 24.92406 20.361153 23.755988 19.200895 22.315434 19.200895 z M 105.70879 19.200895 C 104.26807 19.200895 103.10068 20.361153 103.10068 21.791951 C 103.10068 21.991568 103.12329 22.185621 103.16631 22.372278 L 106.20385 19.247404 C 106.04358 19.216816 105.87807 19.200895 105.70879 19.200895 z M 57.500366 29.697929 C 55.419541 29.697929 53.732121 31.374129 53.732121 33.440853 C 53.732121 35.507566 55.419541 37.182743 57.500366 37.182743 C 59.581215 37.182743 61.267578 35.507566 61.267578 33.440853 C 61.267578 31.374129 59.581215 29.697929 57.500366 29.697929 z M 70.524894 29.697929 C 68.444046 29.697929 66.756649 31.374129 66.756649 33.440853 C 66.756649 35.507566 68.444046 37.182743 70.524894 37.182743 C 72.605722 37.182743 74.292106 35.507566 74.292106 33.440853 C 74.292106 31.374129 72.605722 29.697929 70.524894 29.697929 z M 45.771883 29.985767 C 43.85112 29.985767 42.294059 31.533106 42.294059 33.440853 C 42.294059 35.348602 43.85112 36.894906 45.771883 36.894906 C 47.692644 36.894906 49.24919 35.348602 49.24919 33.440853 C 49.24919 31.533106 47.692644 29.985767 45.771883 29.985767 z M 82.252861 29.985767 C 80.332061 29.985767 78.775037 31.533106 78.775037 33.440853 C 78.775037 35.348602 80.332061 36.894906 82.252861 36.894906 C 84.173528 36.894906 85.730168 35.348602 85.730168 33.440853 C 85.730168 31.533106 84.173528 29.985767 82.252861 29.985767 z M 34.043917 30.273604 C 32.283214 30.273604 30.855481 31.692082 30.855481 33.440853 C 30.855481 35.189646 32.283214 36.607068 34.043917 36.607068 C 35.804622 36.607068 37.231836 35.189646 37.231836 33.440853 C 37.231836 31.692082 35.804622 30.273604 34.043917 30.273604 z M 93.981344 30.273604 C 92.220231 30.273604 90.792391 31.692082 90.792391 33.440853 C 90.792391 33.923126 90.901036 34.379988 91.095215 34.789091 L 95.236564 30.528886 C 94.851369 30.36474 94.427078 30.273604 93.981344 30.273604 z M 22.315434 30.561959 C 20.714794 30.561959 19.417419 31.851076 19.417419 33.440853 C 19.417419 35.030678 20.714794 36.31923 22.315434 36.31923 C 23.916075 36.31923 25.213448 35.030678 25.213448 33.440853 C 25.213448 31.851076 23.916075 30.561959 22.315434 30.561959 z M 106.05606 30.582629 L 102.8454 33.88527 C 103.0607 35.263861 104.26048 36.31923 105.70879 36.31923 C 107.30936 36.31923 108.60732 35.030678 108.60732 33.440853 C 108.60732 31.967764 107.49297 30.752997 106.05606 30.582629 z M 10.587467 30.849797 C 9.8062767 30.849797 9.1049134 31.190987 8.6268636 31.731396 A 64.072471 64.114121 0 0 0 8.1023478 32.65072 C 8.0221588 32.899761 7.9793579 33.165395 7.9793579 33.440853 C 7.9793579 34.87167 9.1468912 36.031392 10.587467 36.031392 C 12.02805 36.031392 13.196094 34.87167 13.196094 33.440853 C 13.196094 32.010057 12.02805 30.849797 10.587467 30.849797 z M 117.43728 30.849797 C 115.99671 30.849821 114.82917 32.010072 114.82917 33.440853 C 114.82917 34.87167 115.99669 36.031392 117.43728 36.031392 C 118.87751 36.031392 120.04539 34.87167 120.04539 33.440853 C 120.04539 33.199393 120.01168 32.964983 119.94978 32.743221 A 64.072471 64.114121 0 0 0 119.33173 31.660083 C 118.8563 31.161121 118.18337 30.849809 117.43728 30.849797 z M 57.500366 41.059509 C 55.259474 41.059509 53.442216 42.863552 53.442216 45.089237 C 53.442216 47.314959 55.259474 49.119482 57.500366 49.119482 C 59.741282 49.119482 61.557483 47.314959 61.557483 45.089237 C 61.557483 42.863552 59.741282 41.059509 57.500366 41.059509 z M 70.524894 41.059509 C 68.283956 41.059509 66.466744 42.863552 66.466744 45.089237 C 66.466744 47.314959 68.283956 49.119482 70.524894 49.119482 C 72.765783 49.119482 74.582011 47.314959 74.582011 45.089237 C 74.582011 42.863552 72.765783 41.059509 70.524894 41.059509 z M 45.771883 41.347347 C 43.691059 41.347347 42.004154 43.022514 42.004154 45.089237 C 42.004154 47.155964 43.691059 48.831128 45.771883 48.831128 C 47.852715 48.831128 49.539095 47.155964 49.539095 45.089237 C 49.539095 43.022514 47.852715 41.347347 45.771883 41.347347 z M 82.252861 41.347347 C 80.171999 41.347347 78.485132 43.022514 78.485132 45.089237 C 78.485132 45.843039 78.709922 46.544666 79.095947 47.132007 L 84.197961 41.883748 C 83.630131 41.543048 82.964734 41.347347 82.252861 41.347347 z M 34.043917 41.635185 C 32.123154 41.635185 30.565576 43.18148 30.565576 45.089237 C 30.565576 46.996982 32.123154 48.54329 34.043917 48.54329 C 35.964685 48.54329 37.521741 46.996982 37.521741 45.089237 C 37.521741 43.18148 35.964685 41.635185 34.043917 41.635185 z M 95.12546 41.826388 L 90.737614 46.339807 C 91.242149 47.629305 92.50439 48.54329 93.981344 48.54329 C 95.901935 48.54329 97.458651 46.996982 97.458651 45.089237 C 97.458651 43.579709 96.483911 42.296347 95.12546 41.826388 z M 22.315434 41.922506 C 20.554731 41.922506 19.127515 43.340463 19.127515 45.089237 C 19.127515 46.838021 20.554731 48.255452 22.315434 48.255452 C 24.076136 48.255452 25.503353 46.838021 25.503353 45.089237 C 25.503353 43.340463 24.076136 41.922506 22.315434 41.922506 z M 105.70879 41.922506 C 103.94798 41.922506 102.52036 43.340463 102.52036 45.089237 C 102.52036 46.838021 103.94798 48.255452 105.70879 48.255452 C 107.46937 48.255452 108.89671 46.838021 108.89671 45.089237 C 108.89671 43.340463 107.46937 41.922506 105.70879 41.922506 z M 10.587467 42.210343 C 8.9868302 42.210343 7.6894531 43.499476 7.6894531 45.089237 C 7.6894531 46.679055 8.9868302 47.967615 10.587467 47.967615 C 12.188117 47.967615 13.485999 46.679055 13.485999 45.089237 C 13.485999 43.499476 12.188117 42.210343 10.587467 42.210343 z M 117.43728 42.210343 C 115.83641 42.210343 114.53875 43.499476 114.53875 45.089237 C 114.53875 46.679055 115.83641 47.967615 117.43728 47.967615 C 119.03795 47.967615 120.33477 46.679055 120.33477 45.089237 C 120.33477 43.499476 119.03795 42.210343 117.43728 42.210343 z M 57.500366 52.420056 C 55.099414 52.420056 53.152828 54.352458 53.152828 56.737105 C 53.152828 59.121808 55.099414 61.055188 57.500366 61.055188 C 59.901345 61.055188 61.847388 59.121808 61.847388 56.737105 C 61.847388 54.352458 59.901345 52.420056 57.500366 52.420056 z M 70.524894 52.420056 C 68.123896 52.420056 66.177356 54.352458 66.177356 56.737105 C 66.177356 57.759223 66.53462 58.698637 67.132336 59.438232 L 73.123185 53.275818 C 72.398344 52.738182 71.499232 52.420056 70.524894 52.420056 z M 45.771883 52.707894 C 43.530999 52.707894 41.714766 54.511428 41.714766 56.737105 C 41.714766 58.962835 43.530999 60.767867 45.771883 60.767867 C 48.012779 60.767867 49.829517 58.962835 49.829517 56.737105 C 49.829517 54.511428 48.012779 52.707894 45.771883 52.707894 z M 34.043917 52.995215 C 31.963089 52.995215 30.275671 54.670385 30.275671 56.737105 C 30.275671 58.803859 31.963089 60.480029 34.043917 60.480029 C 36.124753 60.480029 37.811129 58.803859 37.811129 56.737105 C 37.811129 54.670385 36.124753 52.995215 34.043917 52.995215 z M 93.981344 52.995215 C 91.900344 52.995215 90.213098 54.670385 90.213098 56.737105 C 90.213098 58.803859 91.900344 60.480029 93.981344 60.480029 C 96.062145 60.480029 97.748556 58.803859 97.748556 56.737105 C 97.748556 54.670385 96.062145 52.995215 93.981344 52.995215 z M 84.112179 53.154895 L 78.713025 58.709078 C 79.408258 59.937597 80.733074 60.767867 82.252861 60.767867 C 84.493782 60.767867 86.309977 58.962835 86.309977 56.737105 C 86.309977 55.177183 85.417456 53.824621 84.112179 53.154895 z M 22.315434 53.283053 C 20.394647 53.283053 18.83761 54.829362 18.83761 56.737105 C 18.83761 58.644856 20.394647 60.192192 22.315434 60.192192 C 24.236199 60.192192 25.793258 58.644856 25.793258 56.737105 C 25.793258 54.829362 24.236199 53.283053 22.315434 53.283053 z M 105.70879 53.283053 C 103.78804 53.283053 102.23149 54.829362 102.23149 56.737105 C 102.23149 58.644856 103.78804 60.192192 105.70879 60.192192 C 107.62955 60.192192 109.18662 58.644856 109.18662 56.737105 C 109.18662 54.829362 107.62955 53.283053 105.70879 53.283053 z M 10.587467 53.57089 C 8.8267666 53.57089 7.3990316 54.988359 7.3990316 56.737105 C 7.3990316 58.485907 8.8267666 59.904354 10.587467 59.904354 C 12.34817 59.904354 13.775387 58.485907 13.775387 56.737105 C 13.775387 54.988359 12.34817 53.57089 10.587467 53.57089 z M 117.43728 53.57089 C 115.67633 53.57089 114.24884 54.988359 114.24884 56.737105 C 114.24884 58.485907 115.67633 59.904354 117.43728 59.904354 C 119.19796 59.904354 120.62468 58.485907 120.62468 56.737105 C 120.62468 54.988359 119.19796 53.57089 117.43728 53.57089 z M 0.63820394 54.464893 A 64.072471 64.114121 0 0 0 0.096118164 59.341597 C 1.0780792 58.880657 1.7575155 57.887453 1.7575155 56.737105 C 1.7575155 55.813387 1.3192722 54.991607 0.63820394 54.464893 z M 127.36484 54.481429 C 126.69602 55.00873 126.26723 55.823078 126.26723 56.737105 C 126.26723 57.877786 126.93523 58.863811 127.90382 59.329712 A 64.072471 64.114121 0 0 0 127.36484 54.481429 z M 57.500366 65.355701 C 55.099414 65.355701 53.152828 67.28858 53.152828 69.673267 C 53.152828 70.811121 53.595933 71.846436 54.320199 72.61779 L 60.350838 66.414034 C 59.587709 65.755156 58.591058 65.355701 57.500366 65.355701 z M 72.002323 65.611499 L 66.489482 71.282987 C 67.131983 72.870653 68.696644 73.991349 70.524894 73.991349 C 72.925839 73.991349 74.871916 72.057959 74.871916 69.673267 C 74.871916 67.804039 73.676039 66.212211 72.00284 65.611499 L 72.002323 65.611499 z M 45.771883 65.643538 C 43.530999 65.643538 41.714766 67.447565 41.714766 69.673267 C 41.714766 71.898981 43.530999 73.703512 45.771883 73.703512 C 48.012779 73.703512 49.829517 71.898981 49.829517 69.673267 C 49.829517 67.447565 48.012779 65.643538 45.771883 65.643538 z M 82.252861 65.643538 C 80.011972 65.643538 78.19471 67.447565 78.19471 69.673267 C 78.19471 71.898981 80.011972 73.703512 82.252861 73.703512 C 84.493782 73.703512 86.309977 71.898981 86.309977 69.673267 C 86.309977 67.447565 84.493782 65.643538 82.252861 65.643538 z M 34.043917 65.931376 C 31.963089 65.931376 30.275671 67.606543 30.275671 69.673267 C 30.275671 71.739984 31.963089 73.415674 34.043917 73.415674 C 36.124753 73.415674 37.811129 71.739984 37.811129 69.673267 C 37.811129 67.606543 36.124753 65.931376 34.043917 65.931376 z M 93.981344 65.931376 C 91.900344 65.931376 90.213098 67.606543 90.213098 69.673267 C 90.213098 71.739984 91.900344 73.415674 93.981344 73.415674 C 96.062145 73.415674 97.748556 71.739984 97.748556 69.673267 C 97.748556 67.606543 96.062145 65.931376 93.981344 65.931376 z M 22.315434 66.219214 C 20.394647 66.219214 18.83761 67.765513 18.83761 69.673267 C 18.83761 71.58101 20.394647 73.127836 22.315434 73.127836 C 24.236199 73.127836 25.793258 71.58101 25.793258 69.673267 C 25.793258 67.765513 24.236199 66.219214 22.315434 66.219214 z M 105.70879 66.219214 C 103.78804 66.219214 102.23149 67.765513 102.23149 69.673267 C 102.23149 71.58101 103.78804 73.127836 105.70879 73.127836 C 107.62955 73.127836 109.18662 71.58101 109.18662 69.673267 C 109.18662 67.765513 107.62955 66.219214 105.70879 66.219214 z M 10.587467 66.507052 C 8.8267666 66.507052 7.3990316 67.924493 7.3990316 69.673267 C 7.3990316 71.422034 8.8267666 72.840515 10.587467 72.840515 C 12.34817 72.840515 13.775387 71.422034 13.775387 69.673267 C 13.775387 67.924493 12.34817 66.507052 10.587467 66.507052 z M 117.43728 66.507052 C 115.67633 66.507052 114.24884 67.924493 114.24884 69.673267 C 114.24884 71.422034 115.67633 72.840515 117.43728 72.840515 C 119.19796 72.840515 120.62468 71.422034 120.62468 69.673267 C 120.62468 67.924493 119.19796 66.507052 117.43728 66.507052 z M 0 67.026917 A 64.072471 64.114121 0 0 0 0.44131673 72.086556 C 1.233936 71.572853 1.7575155 70.683423 1.7575155 69.673267 C 1.7575155 68.48568 1.0336139 67.466809 0 67.026917 z M 127.99994 67.037252 C 126.97937 67.482707 126.26723 68.495019 126.26723 69.673267 C 126.26723 70.67404 126.78098 71.556279 127.56121 72.072087 A 64.072471 64.114121 0 0 0 127.99994 67.037252 z M 70.524894 77.291923 C 68.283956 77.291923 66.466744 79.096461 66.466744 81.322168 C 66.466744 83.547891 68.283956 85.351896 70.524894 85.351896 C 72.765783 85.351896 74.582011 83.547891 74.582011 81.322168 C 74.582011 79.096461 72.765783 77.291923 70.524894 77.291923 z M 45.771883 77.580278 C 43.691059 77.580278 42.004154 79.255448 42.004154 81.322168 C 42.004154 82.401257 42.464333 83.373482 43.199947 84.056368 L 48.432703 78.673751 C 47.751177 77.998286 46.810846 77.580278 45.771883 77.580278 z M 82.252861 77.580278 C 80.171999 77.580278 78.485132 79.255448 78.485132 81.322168 C 78.485132 83.388919 80.171999 85.064058 82.252861 85.064058 C 84.333772 85.064058 86.020072 83.388919 86.020072 81.322168 C 86.020072 79.255448 84.333772 77.580278 82.252861 77.580278 z M 34.043917 77.868115 C 32.123154 77.868115 30.565576 79.414421 30.565576 81.322168 C 30.565576 83.229919 32.123154 84.776221 34.043917 84.776221 C 35.964685 84.776221 37.521741 83.229919 37.521741 81.322168 C 37.521741 79.414421 35.964685 77.868115 34.043917 77.868115 z M 93.981344 77.868115 C 92.060221 77.868115 90.503003 79.414421 90.503003 81.322168 C 90.503003 83.229919 92.060221 84.776221 93.981344 84.776221 C 95.901935 84.776221 97.458651 83.229919 97.458651 81.322168 C 97.458651 79.414421 95.901935 77.868115 93.981344 77.868115 z M 59.893502 78.067586 L 54.309347 83.811938 C 55.052343 84.749862 56.205548 85.351896 57.500366 85.351896 C 59.741282 85.351896 61.557483 83.547891 61.557483 81.322168 C 61.557483 79.985429 60.902313 78.80081 59.893502 78.067586 z M 22.315434 78.155953 C 20.554731 78.155953 19.127515 79.573417 19.127515 81.322168 C 19.127515 83.070928 20.554731 84.488383 22.315434 84.488383 C 24.076136 84.488383 25.503353 83.070928 25.503353 81.322168 C 25.503353 79.573417 24.076136 78.155953 22.315434 78.155953 z M 105.70879 78.155953 C 103.94798 78.155953 102.52036 79.573417 102.52036 81.322168 C 102.52036 83.070928 103.94798 84.488383 105.70879 84.488383 C 107.46937 84.488383 108.89671 83.070928 108.89671 81.322168 C 108.89671 79.573417 107.46937 78.155953 105.70879 78.155953 z M 10.587467 78.443791 C 8.9868302 78.443791 7.6894531 79.732394 7.6894531 81.322168 C 7.6894531 82.911969 8.9868302 84.200545 10.587467 84.200545 C 12.188117 84.200545 13.485999 82.911969 13.485999 81.322168 C 13.485999 79.732394 12.188117 78.443791 10.587467 78.443791 z M 117.43728 78.443791 C 115.83641 78.443791 114.53875 79.732394 114.53875 81.322168 C 114.53875 82.911969 115.83641 84.200545 117.43728 84.200545 C 119.03795 84.200545 120.33477 82.911969 120.33477 81.322168 C 120.33477 79.732394 119.03795 78.443791 117.43728 78.443791 z M 57.500366 89.228662 C 55.419541 89.228662 53.732121 90.903885 53.732121 92.970553 C 53.732121 95.037283 55.419541 96.71296 57.500366 96.71296 C 59.581215 96.71296 61.267578 95.037283 61.267578 92.970553 C 61.267578 90.903885 59.581215 89.228662 57.500366 89.228662 z M 70.524894 89.228662 C 68.444046 89.228662 66.756649 90.903885 66.756649 92.970553 C 66.756649 95.037283 68.444046 96.71296 70.524894 96.71296 C 72.605722 96.71296 74.292106 95.037283 74.292106 92.970553 C 74.292106 90.903885 72.605722 89.228662 70.524894 89.228662 z M 82.252861 89.5165 C 80.332061 89.5165 78.775037 91.062829 78.775037 92.970553 C 78.775037 94.878284 80.332061 96.425122 82.252861 96.425122 C 84.173528 96.425122 85.730168 94.878284 85.730168 92.970553 C 85.730168 91.062829 84.173528 89.5165 82.252861 89.5165 z M 34.043917 89.804338 C 32.283214 89.804338 30.855481 91.221849 30.855481 92.970553 C 30.855481 93.991067 31.341862 94.898859 32.096749 95.477893 L 36.498547 90.950004 C 35.913805 90.250101 35.031204 89.804338 34.043917 89.804338 z M 93.981344 89.804338 C 92.220231 89.804338 90.792391 91.221849 90.792391 92.970553 C 90.792391 94.719316 92.220231 96.136768 93.981344 96.136768 C 95.741958 96.136768 97.168229 94.719316 97.168229 92.970553 C 97.168229 91.221849 95.741958 89.804338 93.981344 89.804338 z M 22.315434 90.092175 C 20.714794 90.092175 19.417419 91.380888 19.417419 92.970553 C 19.417419 94.560351 20.714794 95.849963 22.315434 95.849963 C 23.916075 95.849963 25.213448 94.560351 25.213448 92.970553 C 25.213448 91.380888 23.916075 90.092175 22.315434 90.092175 z M 105.70879 90.092175 C 104.10816 90.092175 102.81078 91.380888 102.81078 92.970553 C 102.81078 94.560351 104.10816 95.849963 105.70879 95.849963 C 107.30936 95.849963 108.60732 94.560351 108.60732 92.970553 C 108.60732 91.380888 107.30936 90.092175 105.70879 90.092175 z M 47.990869 90.310767 L 43.173075 95.266536 C 43.810036 95.97741 44.738455 96.425122 45.771883 96.425122 C 47.692644 96.425122 49.24919 94.878284 49.24919 92.970553 C 49.24919 91.9007 48.759738 90.944334 47.990869 90.310767 z M 10.587467 90.380013 C 9.1468906 90.380013 7.9793579 91.539854 7.9793579 92.970553 C 7.9793579 94.40135 9.1468906 95.561609 10.587467 95.561609 C 12.02805 95.561609 13.196094 94.40135 13.196094 92.970553 C 13.196094 91.539854 12.02805 90.380013 10.587467 90.380013 z M 117.43728 90.380013 C 115.99669 90.380013 114.82917 91.539854 114.82917 92.970553 C 114.82917 94.40135 115.99669 95.561609 117.43728 95.561609 C 118.87751 95.561609 120.04539 94.40135 120.04539 92.970553 C 120.04539 91.539854 118.87751 90.380013 117.43728 90.380013 z M 57.500366 101.16488 C 55.579609 101.16488 54.022026 102.71174 54.022026 104.61945 C 54.022026 106.52721 55.579609 108.07351 57.500366 108.07351 C 59.421151 108.07351 60.977673 106.52721 60.977673 104.61945 C 60.977673 102.71174 59.421151 101.16488 57.500366 101.16488 z M 70.524894 101.16488 C 68.604106 101.16488 67.046554 102.71174 67.046554 104.61945 C 67.046554 106.52721 68.604106 108.07351 70.524894 108.07351 C 72.445655 108.07351 74.002718 106.52721 74.002718 104.61945 C 74.002718 102.71174 72.445655 101.16488 70.524894 101.16488 z M 45.771883 101.45324 C 44.01118 101.45324 42.583964 102.87066 42.583964 104.61945 C 42.583964 106.36828 44.01118 107.78567 45.771883 107.78567 C 47.532594 107.78567 48.959802 106.36828 48.959802 104.61945 C 48.959802 102.87066 47.532594 101.45324 45.771883 101.45324 z M 82.252861 101.45324 C 80.492128 101.45324 79.064941 102.87066 79.064941 104.61945 C 79.064941 106.36828 80.492128 107.78567 82.252861 107.78567 C 84.013485 107.78567 85.44078 106.36828 85.44078 104.61945 C 85.44078 102.87066 84.013485 101.45324 82.252861 101.45324 z M 93.981344 101.74108 C 92.380707 101.74108 91.082296 103.02965 91.082296 104.61945 C 91.082296 106.20938 92.380707 107.49835 93.981344 107.49835 C 95.581881 107.49835 96.878841 106.20938 96.878841 104.61945 C 96.878841 103.02965 95.581881 101.74108 93.981344 101.74108 z M 22.315434 102.02891 C 20.874862 102.02891 19.706807 103.18928 19.706807 104.61997 C 19.706807 105.58323 20.236238 106.42353 21.021456 106.86996 C 21.021581 106.87003 21.021847 106.86989 21.021973 106.86996 L 24.533903 103.25675 C 24.074013 102.51978 23.252537 102.02891 22.315434 102.02891 z M 105.70879 102.02891 C 104.26807 102.02891 103.10068 103.18928 103.10068 104.61997 C 103.10068 106.05107 104.26807 107.21051 105.70879 107.21051 C 107.14942 107.21051 108.3169 106.05107 108.3169 104.61997 C 108.3169 103.18928 107.14942 102.02891 105.70879 102.02891 z M 36.075834 102.56738 L 32.049723 106.70873 C 32.569241 107.19807 33.271379 107.49835 34.043917 107.49835 C 35.644564 107.49835 36.941931 106.20938 36.941931 104.61945 C 36.941931 103.81589 36.610405 103.08957 36.075834 102.56738 z M 57.500366 113.10162 C 55.739666 113.10162 54.31193 114.52016 54.31193 116.26887 C 54.31193 118.0176 55.739666 119.43457 57.500366 119.43457 C 59.261094 119.43457 60.688285 118.0176 60.688285 116.26887 C 60.688285 114.52016 59.261094 113.10162 57.500366 113.10162 z M 70.524894 113.10162 C 68.764171 113.10162 67.336458 114.52016 67.336458 116.26887 C 67.336458 118.0176 68.764171 119.43457 70.524894 119.43457 C 72.285591 119.43457 73.712813 118.0176 73.712813 116.26887 C 73.712813 114.52016 72.285591 113.10162 70.524894 113.10162 z M 45.771883 113.38946 C 44.171243 113.38946 42.873352 114.67907 42.873352 116.26887 C 42.873352 117.85842 44.171243 119.14673 45.771883 119.14673 C 47.372531 119.14673 48.669897 117.85842 48.669897 116.26887 C 48.669897 114.67907 47.372531 113.38946 45.771883 113.38946 z M 82.252861 113.38946 C 80.652228 113.38946 79.354329 114.67907 79.354329 116.26887 C 79.354329 117.85842 80.652228 119.14673 82.252861 119.14673 C 83.853508 119.14673 85.150875 117.85842 85.150875 116.26887 C 85.150875 114.67907 83.853508 113.38946 82.252861 113.38946 z M 34.043917 113.67782 C 32.603331 113.67782 31.435291 114.838 31.435291 116.26887 C 31.435291 117.69957 32.603331 118.85889 34.043917 118.85889 C 35.484501 118.85889 36.652543 117.69957 36.652543 116.26887 C 36.652543 114.838 35.484501 113.67782 34.043917 113.67782 z M 93.981344 113.67782 C 92.540752 113.67782 91.372201 114.838 91.372201 116.26887 C 91.372201 117.69957 92.540752 118.85889 93.981344 118.85889 C 95.421705 118.85889 96.589453 117.69957 96.589453 116.26887 C 96.589453 114.838 95.421705 113.67782 93.981344 113.67782 z M 57.500366 125.03888 C 56.072304 125.03888 54.885091 126.06424 54.64576 127.41444 A 64.072471 64.114121 0 0 0 60.397347 127.99994 C 60.398136 127.97334 60.398381 127.94516 60.398381 127.91726 C 60.398381 126.3275 59.101017 125.03888 57.500366 125.03888 z M 70.524894 125.03888 C 68.924231 125.03888 67.625846 126.3275 67.625846 127.91726 C 67.625846 127.94386 67.626686 127.97161 67.627397 127.99891 A 64.072471 64.114121 0 0 0 73.37795 127.41134 C 73.137218 126.06279 71.951732 125.03888 70.524894 125.03888 z M 45.771883 125.3262 C 45.65497 125.3262 45.540054 125.33325 45.427201 125.34945 A 64.072471 64.114121 0 0 0 47.435864 125.92255 C 46.984256 125.55049 46.404479 125.32723 45.771883 125.32723 L 45.771883 125.3262 z M 82.252861 125.3262 C 81.62571 125.3262 81.049654 125.54635 80.599731 125.91273 A 64.072471 64.114121 0 0 0 82.580489 125.34635 C 82.473058 125.33305 82.363985 125.3262 82.252861 125.3262 z " /><rect
       style="fill:#8bff92;fill-opacity:1;stroke-width:0.0866875"
       id="rect2"
       width="7.2068148"
       height="131.78174"
       x="-93.405991"
       y="-65.890869"
       ry="4.4361949"
       rx="3.6034074"
       transform="matrix(-0.70710682,-0.70710675,-0.70710682,0.70710675,0,0)" /></g><g
     inkscape:groupmode="layer"
     id="layer3"
     inkscape:label="Blur"
     style="display:none"><path
       id="path4-5-3"
       mask="none"
       style="display:inline;fill:url(#radialGradient2-4-7);fill-opacity:1;stroke:none;stroke-width:0.596651;stroke-dasharray:none;stroke-opacity:1"
       d="m 59.970354,0 a 64.072471,64.114121 0 0 0 -4.591635,0.4562341 c 0.529103,0.5640864 1.284085,0.9168248 2.121527,0.9168248 1.044969,0 1.960183,-0.5493434 2.470108,-1.3730589 z m 8.084328,0.0018 c 0.510109,0.8228411 1.425798,1.3711969 2.470108,1.3711969 0.836006,0 1.588812,-0.3513155 2.117772,-0.9137154 A 64.072471,64.114121 0 0 0 68.054682,0.0018042 Z M 57.500246,6.977126 c -1.7607,0 -3.188549,1.417541 -3.188549,3.166309 0,1.748796 1.427849,3.166304 3.188549,3.166304 1.760728,0 3.18792,-1.417508 3.18792,-3.166304 0,-1.748768 -1.427192,-3.166309 -3.18792,-3.166309 z m 13.024544,0 c -1.760723,0 -3.188549,1.417541 -3.188549,3.166309 0,1.748796 1.427826,3.166304 3.188549,3.166304 1.760697,0 3.18792,-1.417508 3.18792,-3.166304 0,-1.748768 -1.427223,-3.166309 -3.18792,-3.166309 z M 45.771773,7.264902 c -1.60064,0 -2.898169,1.288729 -2.898169,2.87852 0,1.589804 1.297529,2.878516 2.898169,2.878516 1.600648,0 2.898167,-1.288712 2.898167,-2.878516 0,-1.589791 -1.297519,-2.87852 -2.898167,-2.87852 z m 36.480864,0 c -1.600633,0 -2.898166,1.288729 -2.898166,2.87852 0,1.589804 1.297533,2.878516 2.898166,2.878516 1.600647,0 2.898179,-1.288712 2.898179,-2.878516 0,-1.589791 -1.297532,-2.87852 -2.898179,-2.87852 z M 34.043923,7.552677 c -0.192278,0 -0.379676,0.02062 -0.560105,0.05968 a 64.072471,64.114121 0 0 0 -1.32173,0.736569 c -0.450184,0.465566 -0.726577,1.098019 -0.726577,1.79449 0,1.430818 1.167826,2.590724 2.608412,2.590724 1.440584,0 2.608416,-1.159906 2.608416,-2.590724 0,-1.430786 -1.167832,-2.590728 -2.608416,-2.590728 z m 59.937203,0 c -1.440592,0 -2.609052,1.159943 -2.609052,2.590728 0,1.430817 1.16846,2.590724 2.609052,2.590724 1.440361,0 2.608387,-1.159907 2.608387,-2.590724 0,-0.681428 -0.265408,-1.301524 -0.698419,-1.764033 a 64.072471,64.114121 0 0 0 -1.38931,-0.775104 c -0.168169,-0.03388 -0.342298,-0.0516 -0.520658,-0.0516 z m -36.48088,10.784958 c -1.920757,0 -3.478303,1.546341 -3.478303,3.454098 0,1.907739 1.557546,3.454094 3.478303,3.454094 1.920785,0 3.477674,-1.546355 3.477674,-3.454094 0,-1.907757 -1.556889,-3.454098 -3.477674,-3.454098 z m 13.024544,0 c -1.920788,0 -3.478303,1.546341 -3.478303,3.454098 0,1.907739 1.557515,3.454094 3.478303,3.454094 1.920761,0 3.477678,-1.546355 3.477678,-3.454094 0,-1.907757 -1.556917,-3.454098 -3.477678,-3.454098 z m -24.753017,0.287776 c -1.760703,0 -3.187923,1.417527 -3.187923,3.166308 0,1.748797 1.42722,3.166305 3.187923,3.166305 1.760711,0 3.18792,-1.417508 3.18792,-3.166305 0,-1.748781 -1.427209,-3.166308 -3.18792,-3.166308 z m 36.480864,0 c -1.760733,0 -3.187921,1.417527 -3.187921,3.166308 0,1.748797 1.427188,3.166305 3.187921,3.166305 1.760624,0 3.18793,-1.417508 3.18793,-3.166305 0,-1.748781 -1.427306,-3.166308 -3.18793,-3.166308 z m -48.208714,0.287776 c -1.60065,0 -2.898165,1.288721 -2.898165,2.878519 0,1.589791 1.297515,2.878516 2.898165,2.878516 1.600647,0 2.898171,-1.288725 2.898171,-2.878516 0,-1.589798 -1.297524,-2.878519 -2.898171,-2.878519 z m 59.937203,0 c -1.600637,0 -2.898802,1.288721 -2.898802,2.878519 0,1.589791 1.298165,2.878516 2.898802,2.878516 1.600537,0 2.897537,-1.288725 2.897537,-2.878516 0,-1.589798 -1.297,-2.878519 -2.897537,-2.878519 z M 22.31545,19.200995 c -1.440572,0 -2.608412,1.15993 -2.608412,2.590728 0,1.430813 1.16784,2.590724 2.608412,2.590724 1.440554,0 2.608413,-1.159911 2.608413,-2.590724 0,-1.430798 -1.167859,-2.590728 -2.608413,-2.590728 z m 83.39352,0 c -1.44072,0 -2.60842,1.15993 -2.60842,2.590728 0,1.430813 1.1677,2.590724 2.60842,2.590724 1.44063,0 2.60779,-1.159911 2.60779,-2.590724 0,-1.430798 -1.16716,-2.590728 -2.60779,-2.590728 z m -48.208724,10.49717 c -2.080825,0 -3.768056,1.67578 -3.768056,3.742504 0,2.066713 1.687231,3.741886 3.768056,3.741886 2.080849,0 3.767431,-1.675173 3.767431,-3.741886 0,-2.066724 -1.686582,-3.742504 -3.767431,-3.742504 z m 13.024544,0 c -2.080848,0 -3.768056,1.67578 -3.768056,3.742504 0,2.066713 1.687208,3.741886 3.768056,3.741886 2.080828,0 3.767431,-1.675173 3.767431,-3.741886 0,-2.066724 -1.686603,-3.742504 -3.767431,-3.742504 z M 45.771773,29.98594 c -1.920763,0 -3.477676,1.546969 -3.477676,3.454716 0,1.907749 1.556913,3.454097 3.477676,3.454097 1.920761,0 3.477675,-1.546348 3.477675,-3.454097 0,-1.907747 -1.556914,-3.454716 -3.477675,-3.454716 z m 36.480864,0 c -1.9208,0 -3.477677,1.546969 -3.477677,3.454716 0,1.907749 1.556877,3.454097 3.477677,3.454097 1.920667,0 3.477681,-1.546348 3.477681,-3.454097 0,-1.907747 -1.557014,-3.454716 -3.477681,-3.454716 z m -48.208714,0.287775 c -1.760703,0 -3.188546,1.418157 -3.188546,3.166928 0,1.748793 1.427843,3.166308 3.188546,3.166308 1.760705,0 3.187924,-1.417515 3.187924,-3.166308 0,-1.748771 -1.427219,-3.166928 -3.187924,-3.166928 z m 59.937203,0 c -1.761113,0 -3.188552,1.418157 -3.188552,3.166928 0,1.748793 1.427439,3.166308 3.188552,3.166308 1.760614,0 3.187288,-1.417515 3.187288,-3.166308 0,-1.748771 -1.426674,-3.166928 -3.187288,-3.166928 z M 22.31545,30.562122 c -1.60064,0 -2.898166,1.28874 -2.898166,2.878517 0,1.589825 1.297526,2.878519 2.898166,2.878519 1.600641,0 2.89817,-1.288694 2.89817,-2.878519 0,-1.589777 -1.297529,-2.878517 -2.89817,-2.878517 z m 83.39352,0 c -1.60063,0 -2.89817,1.28874 -2.89817,2.878517 0,1.589825 1.29754,2.878519 2.89817,2.878519 1.60057,0 2.89814,-1.288694 2.89814,-2.878519 0,-1.589777 -1.29757,-2.878517 -2.89814,-2.878517 z m -95.121366,0.287867 c -0.7811907,0 -1.4826424,0.340982 -1.9606922,0.881391 a 64.072471,64.114121 0 0 0 -0.5244345,0.919312 c -0.080189,0.249041 -0.1232797,0.514564 -0.1232797,0.790022 0,1.430817 1.1678362,2.590727 2.6084124,2.590727 1.440583,0 2.608413,-1.15991 2.608413,-2.590727 0,-1.430796 -1.16783,-2.590725 -2.608413,-2.590725 z m 106.849816,0 c -1.44059,0 -2.60839,1.159929 -2.60839,2.590725 0,1.430817 1.1678,2.590727 2.60839,2.590727 1.44023,0 2.60779,-1.15991 2.60779,-2.590727 0,-0.24146 -0.0333,-0.475646 -0.0952,-0.697408 a 64.072471,64.114121 0 0 0 -0.61833,-1.083405 c -0.47544,-0.498972 -1.14824,-0.809912 -1.89435,-0.809912 z M 57.500246,41.059366 c -2.240892,0 -4.05781,1.803991 -4.05781,4.029676 0,2.225722 1.816918,4.030296 4.05781,4.030296 2.240916,0 4.057185,-1.804574 4.057185,-4.030296 0,-2.225685 -1.816269,-4.029676 -4.057185,-4.029676 z m 13.024544,0 c -2.240938,0 -4.05781,1.803991 -4.05781,4.029676 0,2.225722 1.816872,4.030296 4.05781,4.030296 2.240889,0 4.057185,-1.804574 4.057185,-4.030296 0,-2.225685 -1.816296,-4.029676 -4.057185,-4.029676 z m -24.753017,0.287808 c -2.080824,0 -3.767431,1.675161 -3.767431,3.741884 0,2.066727 1.686607,3.741886 3.767431,3.741886 2.080832,0 3.767428,-1.675159 3.767428,-3.741886 0,-2.066723 -1.686596,-3.741884 -3.767428,-3.741884 z m 36.480864,0 c -2.080862,0 -3.76743,1.675161 -3.76743,3.741884 0,2.066727 1.686568,3.741886 3.76743,3.741886 2.080911,0 3.76743,-1.675159 3.76743,-3.741886 0,-2.066723 -1.686519,-3.741884 -3.76743,-3.741884 z M 34.043923,41.63495 c -1.920763,0 -3.478299,1.546337 -3.478299,3.454094 0,1.907745 1.557536,3.454098 3.478299,3.454098 1.920768,0 3.477678,-1.546353 3.477678,-3.454098 0,-1.907757 -1.55691,-3.454094 -3.477678,-3.454094 z m 59.937203,0 c -1.921123,0 -3.478303,1.546337 -3.478303,3.454094 0,1.907745 1.55718,3.454098 3.478303,3.454098 1.920591,0 3.477671,-1.546353 3.477671,-3.454098 0,-1.907757 -1.55708,-3.454094 -3.477671,-3.454094 z M 22.31545,41.922726 c -1.760703,0 -3.187919,1.417531 -3.187919,3.166305 0,1.748784 1.427216,3.166309 3.187919,3.166309 1.760702,0 3.187924,-1.417525 3.187924,-3.166309 0,-1.748774 -1.427222,-3.166305 -3.187924,-3.166305 z m 83.39352,0 c -1.76081,0 -3.18855,1.417531 -3.18855,3.166305 0,1.748784 1.42774,3.166309 3.18855,3.166309 1.76058,0 3.18792,-1.417525 3.18792,-3.166309 0,-1.748774 -1.42734,-3.166305 -3.18792,-3.166305 z m -95.121366,0.287776 c -1.6006372,0 -2.8981667,1.288755 -2.8981667,2.878516 0,1.589818 1.2975295,2.878517 2.8981667,2.878517 1.60065,0 2.898166,-1.288699 2.898166,-2.878517 0,-1.589761 -1.297516,-2.878516 -2.898166,-2.878516 z m 106.849816,0 c -1.60087,0 -2.89877,1.288755 -2.89877,2.878516 0,1.589818 1.2979,2.878517 2.89877,2.878517 1.60067,0 2.89757,-1.288699 2.89757,-2.878517 0,-1.589761 -1.2969,-2.878516 -2.89757,-2.878516 z m -59.937174,10.20938 c -2.400952,0 -4.347563,1.932816 -4.347563,4.317463 0,2.384703 1.946611,4.318087 4.347563,4.318087 2.400979,0 4.346938,-1.933384 4.346938,-4.318087 0,-2.384647 -1.945959,-4.317463 -4.346938,-4.317463 z m 13.024544,0 c -2.400998,0 -4.347564,1.932816 -4.347564,4.317463 0,2.384703 1.946566,4.318087 4.347564,4.318087 2.400945,0 4.346938,-1.933384 4.346938,-4.318087 0,-2.384647 -1.945993,-4.317463 -4.346938,-4.317463 z m -24.753017,0.287776 c -2.240884,0 -4.057184,1.803997 -4.057184,4.029674 0,2.22573 1.8163,4.030296 4.057184,4.030296 2.240896,0 4.057808,-1.804566 4.057808,-4.030296 0,-2.225677 -1.816912,-4.029674 -4.057808,-4.029674 z m 36.480864,0 c -2.240889,0 -4.057811,1.803997 -4.057811,4.029674 0,2.22573 1.816922,4.030296 4.057811,4.030296 2.240921,0 4.057181,-1.804566 4.057181,-4.030296 0,-2.225677 -1.81626,-4.029674 -4.057181,-4.029674 z m -48.208714,0.287775 c -2.080828,0 -3.768053,1.675162 -3.768053,3.741882 0,2.066754 1.687225,3.742508 3.768053,3.742508 2.080836,0 3.767431,-1.675754 3.767431,-3.742508 0,-2.06672 -1.686595,-3.741882 -3.767431,-3.741882 z m 59.937203,0 c -2.081,0 -3.768086,1.675162 -3.768086,3.741882 0,2.066754 1.687086,3.742508 3.768086,3.742508 2.080801,0 3.767421,-1.675754 3.767421,-3.742508 0,-2.06672 -1.68662,-3.741882 -3.767421,-3.741882 z M 22.31545,53.283209 c -1.920787,0 -3.477674,1.54635 -3.477674,3.454093 0,1.907751 1.556887,3.45472 3.477674,3.45472 1.920765,0 3.477677,-1.546969 3.477677,-3.45472 0,-1.907743 -1.556912,-3.454093 -3.477677,-3.454093 z m 83.39352,0 c -1.92075,0 -3.4777,1.54635 -3.4777,3.454093 0,1.907751 1.55695,3.45472 3.4777,3.45472 1.92076,0 3.47767,-1.546969 3.47767,-3.45472 0,-1.907743 -1.55691,-3.454093 -3.47767,-3.454093 z m -95.121366,0.287776 c -1.7607008,0 -3.188547,1.417557 -3.188547,3.166303 0,1.748802 1.4278462,3.166932 3.188547,3.166932 1.760703,0 3.187922,-1.41813 3.187922,-3.166932 0,-1.748746 -1.427219,-3.166303 -3.187922,-3.166303 z m 106.849816,0 c -1.76095,0 -3.18852,1.417557 -3.18852,3.166303 0,1.748802 1.42757,3.166932 3.18852,3.166932 1.76068,0 3.18732,-1.41813 3.18732,-3.166932 0,-1.748746 -1.42664,-3.166303 -3.18732,-3.166303 z M 0.638333,54.46481 a 64.072471,64.114121 0 0 0 -0.541957,4.876883 c 0.981961,-0.46094 1.660921,-1.454057 1.660921,-2.604405 0,-0.923718 -0.437895,-1.745764 -1.118964,-2.272478 z m 126.726457,0.01662 c -0.66882,0.527301 -1.09769,1.34167 -1.09769,2.255697 0,1.140681 0.66794,2.126692 1.63653,2.592593 a 64.072471,64.114121 0 0 0 -0.53884,-4.84829 z M 57.500246,65.355899 c -2.400952,0 -4.347563,1.932778 -4.347563,4.317465 0,2.384692 1.946611,4.318084 4.347563,4.318084 2.400979,0 4.346938,-1.933392 4.346938,-4.318084 0,-2.384687 -1.945959,-4.317465 -4.346938,-4.317465 z m 13.024544,0 c -2.400998,0 -4.347564,1.932778 -4.347564,4.317465 0,2.384692 1.946566,4.318084 4.347564,4.318084 2.400945,0 4.346938,-1.933392 4.346938,-4.318084 0,-2.384687 -1.945993,-4.317465 -4.346938,-4.317465 z m -24.753017,0.287775 c -2.240884,0 -4.057184,1.803973 -4.057184,4.029675 0,2.225714 1.8163,4.030297 4.057184,4.030297 2.240896,0 4.057808,-1.804583 4.057808,-4.030297 0,-2.225702 -1.816912,-4.029675 -4.057808,-4.029675 z m 36.480864,0 c -2.240889,0 -4.057811,1.803973 -4.057811,4.029675 0,2.225714 1.816922,4.030297 4.057811,4.030297 2.240921,0 4.057181,-1.804583 4.057181,-4.030297 0,-2.225702 -1.81626,-4.029675 -4.057181,-4.029675 z m -48.208714,0.287809 c -2.080828,0 -3.768053,1.675159 -3.768053,3.741883 0,2.066717 1.687225,3.742507 3.768053,3.742507 2.080836,0 3.767431,-1.67579 3.767431,-3.742507 0,-2.066724 -1.686595,-3.741883 -3.767431,-3.741883 z m 59.937203,0 c -2.081,0 -3.768086,1.675159 -3.768086,3.741883 0,2.066717 1.687086,3.742507 3.768086,3.742507 2.080801,0 3.767421,-1.67579 3.767421,-3.742507 0,-2.066724 -1.68662,-3.741883 -3.767421,-3.741883 z M 22.31545,66.219258 c -1.920787,0 -3.477674,1.546341 -3.477674,3.454095 0,1.907743 1.556887,3.454719 3.477674,3.454719 1.920765,0 3.477677,-1.546976 3.477677,-3.454719 0,-1.907754 -1.556912,-3.454095 -3.477677,-3.454095 z m 83.39352,0 c -1.92075,0 -3.4777,1.546341 -3.4777,3.454095 0,1.907743 1.55695,3.454719 3.4777,3.454719 1.92076,0 3.47767,-1.546976 3.47767,-3.454719 0,-1.907754 -1.55691,-3.454095 -3.47767,-3.454095 z m -95.121366,0.287775 c -1.7607008,0 -3.188547,1.417532 -3.188547,3.166306 0,1.748767 1.4278462,3.166931 3.188547,3.166931 1.760703,0 3.187922,-1.418164 3.187922,-3.166931 0,-1.748774 -1.427219,-3.166306 -3.187922,-3.166306 z m 106.849816,0 c -1.76095,0 -3.18852,1.417532 -3.18852,3.166306 0,1.748767 1.42757,3.166931 3.18852,3.166931 1.76068,0 3.18732,-1.418164 3.18732,-3.166931 0,-1.748774 -1.42664,-3.166306 -3.18732,-3.166306 z M 0,67.026675 A 64.072471,64.114121 0 0 0 0.441202,72.0863 C 1.233822,71.572597 1.757297,70.683498 1.757297,69.673342 1.757297,68.485755 1.033614,67.466567 0,67.026675 Z m 128,0.01059 c -1.02057,0.445455 -1.7329,1.457853 -1.7329,2.636101 0,1.000773 0.51396,1.882853 1.29419,2.398661 A 64.072471,64.114121 0 0 0 128,67.037259 Z M 57.500246,77.292016 c -2.240892,0 -4.05781,1.804589 -4.05781,4.030296 0,2.225723 1.816918,4.029675 4.05781,4.029675 2.240916,0 4.057185,-1.803952 4.057185,-4.029675 0,-2.225707 -1.816269,-4.030296 -4.057185,-4.030296 z m 13.024544,0 c -2.240938,0 -4.05781,1.804589 -4.05781,4.030296 0,2.225723 1.816872,4.029675 4.05781,4.029675 2.240889,0 4.057185,-1.803952 4.057185,-4.029675 0,-2.225707 -1.816296,-4.030296 -4.057185,-4.030296 z m -24.753017,0.288406 c -2.080824,0 -3.767431,1.675166 -3.767431,3.741886 0,2.066751 1.686607,3.741887 3.767431,3.741887 2.080832,0 3.767428,-1.675136 3.767428,-3.741887 0,-2.06672 -1.686596,-3.741886 -3.767428,-3.741886 z m 36.480864,0 c -2.080862,0 -3.76743,1.675166 -3.76743,3.741886 0,2.066751 1.686568,3.741887 3.76743,3.741887 2.080911,0 3.76743,-1.675136 3.76743,-3.741887 0,-2.06672 -1.686519,-3.741886 -3.76743,-3.741886 z m -48.208714,0.287776 c -1.920763,0 -3.478299,1.546347 -3.478299,3.454094 0,1.907751 1.557536,3.454097 3.478299,3.454097 1.920768,0 3.477678,-1.546346 3.477678,-3.454097 0,-1.907747 -1.55691,-3.454094 -3.477678,-3.454094 z m 59.937203,0 c -1.921123,0 -3.478303,1.546347 -3.478303,3.454094 0,1.907751 1.55718,3.454097 3.478303,3.454097 1.920591,0 3.477671,-1.546346 3.477671,-3.454097 0,-1.907747 -1.55708,-3.454094 -3.477671,-3.454094 z M 22.31545,78.155971 c -1.760703,0 -3.187919,1.417554 -3.187919,3.166305 0,1.74876 1.427216,3.166309 3.187919,3.166309 1.760702,0 3.187924,-1.417549 3.187924,-3.166309 0,-1.748751 -1.427222,-3.166305 -3.187924,-3.166305 z m 83.39352,0 c -1.76081,0 -3.18855,1.417554 -3.18855,3.166305 0,1.74876 1.42774,3.166309 3.18855,3.166309 1.76058,0 3.18792,-1.417549 3.18792,-3.166309 0,-1.748751 -1.42734,-3.166305 -3.18792,-3.166305 z m -95.121366,0.287776 c -1.6006372,0 -2.8981667,1.288742 -2.8981667,2.878516 0,1.589801 1.2975295,2.878515 2.8981667,2.878515 1.60065,0 2.898166,-1.288714 2.898166,-2.878515 0,-1.589774 -1.297516,-2.878516 -2.898166,-2.878516 z m 106.849816,0 c -1.60087,0 -2.89877,1.288742 -2.89877,2.878516 0,1.589801 1.2979,2.878515 2.89877,2.878515 1.60067,0 2.89757,-1.288714 2.89757,-2.878515 0,-1.589774 -1.2969,-2.878516 -2.89757,-2.878516 z M 57.500246,89.228704 c -2.080825,0 -3.768056,1.675222 -3.768056,3.74189 0,2.066726 1.687231,3.742476 3.768056,3.742476 2.080849,0 3.767431,-1.67575 3.767431,-3.742476 0,-2.066668 -1.686582,-3.74189 -3.767431,-3.74189 z m 13.024544,0 c -2.080848,0 -3.768056,1.675222 -3.768056,3.74189 0,2.066726 1.687208,3.742476 3.768056,3.742476 2.080828,0 3.767431,-1.67575 3.767431,-3.742476 0,-2.066668 -1.686603,-3.74189 -3.767431,-3.74189 z m -24.753017,0.287809 c -1.920763,0 -3.477676,1.54639 -3.477676,3.454114 0,1.907733 1.556913,3.454703 3.477676,3.454703 1.920761,0 3.477675,-1.54697 3.477675,-3.454703 0,-1.907724 -1.556914,-3.454114 -3.477675,-3.454114 z m 36.480864,0 c -1.9208,0 -3.477677,1.54639 -3.477677,3.454114 0,1.907733 1.556877,3.454703 3.477677,3.454703 1.920667,0 3.477681,-1.54697 3.477681,-3.454703 0,-1.907724 -1.557014,-3.454114 -3.477681,-3.454114 z m -48.208714,0.287775 c -1.760703,0 -3.188546,1.417635 -3.188546,3.166339 0,1.748763 1.427843,3.166293 3.188546,3.166293 1.760705,0 3.187924,-1.41753 3.187924,-3.166293 0,-1.748704 -1.427219,-3.166339 -3.187924,-3.166339 z m 59.937203,0 c -1.761113,0 -3.188552,1.417635 -3.188552,3.166339 0,1.748763 1.427439,3.166293 3.188552,3.166293 1.760614,0 3.187288,-1.41753 3.187288,-3.166293 0,-1.748704 -1.426674,-3.166339 -3.187288,-3.166339 z M 22.31545,90.092064 c -1.60064,0 -2.898166,1.288865 -2.898166,2.87853 0,1.589796 1.297526,2.879116 2.898166,2.879116 1.600641,0 2.89817,-1.28932 2.89817,-2.879116 0,-1.589665 -1.297529,-2.87853 -2.89817,-2.87853 z m 83.39352,0 c -1.60063,0 -2.89817,1.288865 -2.89817,2.87853 0,1.589796 1.29754,2.879116 2.89817,2.879116 1.60057,0 2.89814,-1.28932 2.89814,-2.879116 0,-1.589665 -1.29757,-2.87853 -2.89814,-2.87853 z m -95.121366,0.287831 c -1.4405768,0 -2.6084131,1.160056 -2.6084131,2.590755 0,1.430797 1.1678363,2.59071 2.6084131,2.59071 1.440583,0 2.608412,-1.159913 2.608412,-2.59071 0,-1.430699 -1.167829,-2.590755 -2.608412,-2.590755 z m 106.849816,0 c -1.44059,0 -2.60839,1.160056 -2.60839,2.590755 0,1.430797 1.1678,2.59071 2.60839,2.59071 1.44023,0 2.60779,-1.159913 2.60779,-2.59071 0,-1.430699 -1.16756,-2.590755 -2.60779,-2.590755 z M 57.500246,101.16486 c -1.920757,0 -3.478303,1.54702 -3.478303,3.45473 0,1.90776 1.557546,3.4541 3.478303,3.4541 1.920785,0 3.477674,-1.54634 3.477674,-3.4541 0,-1.90771 -1.556889,-3.45473 -3.477674,-3.45473 z m 13.024544,0 c -1.920788,0 -3.478303,1.54702 -3.478303,3.45473 0,1.90776 1.557515,3.4541 3.478303,3.4541 1.920761,0 3.477678,-1.54634 3.477678,-3.4541 0,-1.90771 -1.556917,-3.45473 -3.477678,-3.45473 z m -24.753017,0.28826 c -1.760703,0 -3.187923,1.41754 -3.187923,3.16633 0,1.74883 1.42722,3.1663 3.187923,3.1663 1.760711,0 3.18792,-1.41747 3.18792,-3.1663 0,-1.74879 -1.427209,-3.16633 -3.18792,-3.16633 z m 36.480864,0 c -1.760733,0 -3.187921,1.41754 -3.187921,3.16633 0,1.74883 1.427188,3.1663 3.187921,3.1663 1.760624,0 3.18793,-1.41747 3.18793,-3.1663 0,-1.74879 -1.427306,-3.16633 -3.18793,-3.16633 z m -48.208714,0.28794 c -1.60065,0 -2.898165,1.28873 -2.898165,2.87853 0,1.58993 1.297515,2.87852 2.898165,2.87852 1.600647,0 2.898171,-1.28859 2.898171,-2.87852 0,-1.5898 -1.297524,-2.87853 -2.898171,-2.87853 z m 59.937203,0 c -1.600637,0 -2.898802,1.28873 -2.898802,2.87853 0,1.58993 1.298165,2.87852 2.898802,2.87852 1.600537,0 2.897537,-1.28859 2.897537,-2.87852 0,-1.5898 -1.297,-2.87853 -2.897537,-2.87853 z m -71.665676,0.28795 c -1.440572,0 -2.608412,1.16005 -2.608412,2.59074 0,1.4311 1.16784,2.59071 2.608412,2.59071 1.440554,0 2.608413,-1.15961 2.608413,-2.59071 0,-1.43069 -1.167859,-2.59074 -2.608413,-2.59074 z m 83.39352,0 c -1.44072,0 -2.60842,1.16005 -2.60842,2.59074 0,1.4311 1.1677,2.59071 2.60842,2.59071 1.44063,0 2.60779,-1.15961 2.60779,-2.59071 0,-1.43069 -1.16716,-2.59074 -2.60779,-2.59074 z m -48.208724,11.07276 c -1.7607,0 -3.188549,1.41822 -3.188549,3.16693 0,1.74873 1.427849,3.16569 3.188549,3.16569 1.760728,0 3.18792,-1.41696 3.18792,-3.16569 0,-1.74871 -1.427192,-3.16693 -3.18792,-3.16693 z m 13.024544,0 c -1.760723,0 -3.188549,1.41822 -3.188549,3.16693 0,1.74873 1.427826,3.16569 3.188549,3.16569 1.760697,0 3.18792,-1.41696 3.18792,-3.16569 0,-1.74871 -1.427223,-3.16693 -3.18792,-3.16693 z m -24.753017,0.28794 c -1.60064,0 -2.898169,1.28936 -2.898169,2.87916 0,1.58955 1.297529,2.87788 2.898169,2.87788 1.600648,0 2.898167,-1.28833 2.898167,-2.87788 0,-1.5898 -1.297519,-2.87916 -2.898167,-2.87916 z m 36.480864,0 c -1.600633,0 -2.898166,1.28936 -2.898166,2.87916 0,1.58955 1.297533,2.87788 2.898166,2.87788 1.600647,0 2.898179,-1.28833 2.898179,-2.87788 0,-1.5898 -1.297532,-2.87916 -2.898179,-2.87916 z m -48.208714,0.28794 c -1.440586,0 -2.608412,1.16047 -2.608412,2.59134 0,1.4307 1.167826,2.59011 2.608412,2.59011 1.440584,0 2.608416,-1.15941 2.608416,-2.59011 0,-1.43087 -1.167832,-2.59134 -2.608416,-2.59134 z m 59.937203,0 c -1.440592,0 -2.609052,1.16047 -2.609052,2.59134 0,1.4307 1.16846,2.59011 2.609052,2.59011 1.440361,0 2.608387,-1.15941 2.608387,-2.59011 0,-1.43087 -1.168026,-2.59134 -2.608387,-2.59134 z m -36.48088,11.36118 c -1.428062,0 -2.615032,1.02544 -2.854363,2.37564 A 64.072471,64.114121 0 0 0 60.397161,128 c 7.89e-4,-0.0266 0.0012,-0.0548 0.0012,-0.0827 0,-1.58976 -1.297516,-2.87851 -2.898167,-2.87851 z m 13.024544,0 c -1.600663,0 -2.898792,1.28875 -2.898792,2.87851 0,0.0266 4.89e-4,0.0542 0.0012,0.0815 a 64.072471,64.114121 0 0 0 5.750651,-0.58739 c -0.240732,-1.34855 -1.42627,-2.37256 -2.853108,-2.37256 z m -24.753017,0.2876 c -0.116913,0 -0.231973,0.007 -0.344826,0.0232 a 64.072471,64.114121 0 0 0 2.008878,0.57309 c -0.451608,-0.37206 -1.031456,-0.59546 -1.664052,-0.59546 z m 36.480864,0 c -0.627151,0 -1.202866,0.21978 -1.652789,0.58616 a 64.072471,64.114121 0 0 0 1.980719,-0.56628 c -0.107431,-0.0133 -0.216822,-0.02 -0.327946,-0.02 z" /></g></svg>
