
<svg width="24" height="24" viewBox="0 0 128 128" xml:space="preserve" xmlns:xlink="http://www.w3.org/1999/xlink" xmlns="http://www.w3.org/2000/svg"><defs><radialGradient xlink:href="#a" id="b" cx="94.366" cy="91.543" fx="94.366" fy="91.543" r="27.305" gradientTransform="matrix(1 0 0 .99475 0 .48)" gradientUnits="userSpaceOnUse"/><radialGradient xlink:href="#a" id="c" cx="94.366" cy="91.543" fx="94.366" fy="91.543" r="27.305" gradientTransform="matrix(3.33008 0 0 3.3075 -250.233 -239.574)" gradientUnits="userSpaceOnUse"/><radialGradient xlink:href="#a" id="d" cx="94.366" cy="91.543" fx="94.366" fy="91.543" r="27.305" gradientTransform="matrix(3.33008 0 0 3.3075 -250.233 -239.574)" gradientUnits="userSpaceOnUse"/><linearGradient id="a"><stop style="stop-color:currentColor;stop-opacity:1" offset=".278"/><stop style="stop-color:currentColor;stop-opacity:0" offset=".618"/></linearGradient></defs><path style="display:inline;fill:url(#c);fill-opacity:1;stroke:none;stroke-width:.596651;stroke-dasharray:none;stroke-opacity:1" d="M59.97 0a64.072 64.114 0 0 0-4.591.456c.529.564 1.284.917 2.121.917A2.9 2.9 0 0 0 59.97 0zm8.085.002a2.901 2.901 0 0 0 2.47 1.371c.836 0 1.589-.351 2.118-.914a64.072 64.114 0 0 0-4.588-.457ZM57.5 6.977c-1.76 0-3.188 1.418-3.188 3.167 0 1.748 1.428 3.166 3.188 3.166 1.761 0 3.188-1.418 3.188-3.166 0-1.75-1.427-3.167-3.188-3.167zm13.025 0c-1.76 0-3.189 1.418-3.189 3.167 0 1.748 1.428 3.166 3.189 3.166 1.76 0 3.188-1.418 3.188-3.166 0-1.75-1.427-3.167-3.188-3.167zm-24.753.288c-1.6 0-2.899 1.289-2.899 2.879a2.889 2.889 0 0 0 2.899 2.878c1.6 0 2.898-1.289 2.898-2.878a2.889 2.889 0 0 0-2.898-2.88zm36.48 0c-1.6 0-2.898 1.289-2.898 2.879a2.889 2.889 0 0 0 2.899 2.878c1.6 0 2.898-1.289 2.898-2.878a2.889 2.889 0 0 0-2.898-2.88zm-48.208.288c-.192 0-.38.02-.56.06a64.072 64.114 0 0 0-1.322.736 2.574 2.574 0 0 0-.727 1.795 2.6 2.6 0 0 0 2.609 2.59 2.6 2.6 0 0 0 2.609-2.59 2.6 2.6 0 0 0-2.61-2.591zm59.937 0a2.6 2.6 0 0 0-2.609 2.59 2.6 2.6 0 0 0 2.61 2.591 2.6 2.6 0 0 0 2.607-2.59c0-.682-.265-1.302-.698-1.765a64.072 64.114 0 0 0-1.39-.775 2.631 2.631 0 0 0-.52-.051Zm-36.48 10.784c-1.921 0-3.479 1.547-3.479 3.455 0 1.908 1.558 3.454 3.478 3.454 1.921 0 3.478-1.546 3.478-3.454 0-1.908-1.557-3.455-3.478-3.455zm13.024 0c-1.92 0-3.478 1.547-3.478 3.455 0 1.908 1.557 3.454 3.478 3.454 1.92 0 3.478-1.546 3.478-3.454 0-1.908-1.557-3.455-3.478-3.455zm-24.753.288c-1.76 0-3.188 1.418-3.188 3.167 0 1.749 1.427 3.166 3.188 3.166 1.76 0 3.188-1.417 3.188-3.166 0-1.749-1.427-3.167-3.188-3.167zm36.48 0c-1.76 0-3.187 1.418-3.187 3.167 0 1.749 1.427 3.166 3.188 3.166 1.76 0 3.188-1.417 3.188-3.166 0-1.749-1.428-3.167-3.188-3.167zm-48.208.288c-1.6 0-2.898 1.29-2.898 2.879a2.888 2.888 0 0 0 2.898 2.878c1.6 0 2.898-1.288 2.898-2.878a2.889 2.889 0 0 0-2.898-2.879zm59.937 0a2.89 2.89 0 0 0-2.899 2.879 2.889 2.889 0 0 0 2.9 2.878c1.6 0 2.897-1.288 2.897-2.878a2.888 2.888 0 0 0-2.898-2.879zm-71.666.288a2.6 2.6 0 0 0-2.608 2.591 2.6 2.6 0 0 0 2.608 2.59 2.6 2.6 0 0 0 2.61-2.59 2.6 2.6 0 0 0-2.61-2.591zm83.394 0a2.6 2.6 0 0 0-2.543 3.171l3.038-3.125a2.639 2.639 0 0 0-.495-.046zM57.5 29.698c-2.08 0-3.768 1.676-3.768 3.743s1.688 3.742 3.768 3.742c2.081 0 3.768-1.675 3.768-3.742s-1.687-3.743-3.768-3.743zm13.025 0c-2.081 0-3.768 1.676-3.768 3.743s1.687 3.742 3.768 3.742c2.08 0 3.767-1.675 3.767-3.742s-1.686-3.743-3.767-3.743zm-24.753.288c-1.92 0-3.478 1.547-3.478 3.455 0 1.908 1.557 3.454 3.478 3.454 1.92 0 3.477-1.546 3.477-3.454 0-1.908-1.556-3.455-3.477-3.455zm36.48 0c-1.92 0-3.477 1.547-3.477 3.455 0 1.908 1.557 3.454 3.478 3.454 1.92 0 3.477-1.546 3.477-3.454 0-1.908-1.556-3.455-3.477-3.455zm-48.208.288c-1.76 0-3.189 1.418-3.189 3.167 0 1.749 1.428 3.166 3.189 3.166 1.76 0 3.188-1.417 3.188-3.166 0-1.749-1.427-3.167-3.188-3.167zm59.937 0c-1.76 0-3.189 1.418-3.189 3.167 0 .482.109.939.303 1.348l4.142-4.26a3.195 3.195 0 0 0-1.256-.255zm-71.666.288c-1.6 0-2.898 1.29-2.898 2.879a2.888 2.888 0 0 0 2.898 2.878c1.601 0 2.898-1.288 2.898-2.878a2.889 2.889 0 0 0-2.898-2.879zm83.741.02-3.21 3.303a2.893 2.893 0 0 0 2.863 2.434c1.6 0 2.898-1.288 2.898-2.878a2.886 2.886 0 0 0-2.55-2.858zm-95.469.268a2.61 2.61 0 0 0-1.96.881 64.072 64.114 0 0 0-.525.92c-.08.249-.123.514-.123.79a2.6 2.6 0 0 0 2.608 2.59 2.6 2.6 0 0 0 2.61-2.59 2.6 2.6 0 0 0-2.61-2.591zm106.85 0a2.6 2.6 0 0 0-2.608 2.59 2.6 2.6 0 0 0 2.608 2.591 2.6 2.6 0 0 0 2.608-2.59c0-.242-.033-.476-.095-.698a64.072 64.114 0 0 0-.618-1.083 2.609 2.609 0 0 0-1.895-.81zM57.5 41.06c-2.24 0-4.058 1.804-4.058 4.03 0 2.225 1.817 4.03 4.058 4.03 2.241 0 4.057-1.805 4.057-4.03 0-2.226-1.816-4.03-4.057-4.03zm13.025 0c-2.241 0-4.058 1.804-4.058 4.03 0 2.225 1.817 4.03 4.058 4.03 2.24 0 4.057-1.805 4.057-4.03 0-2.226-1.816-4.03-4.057-4.03zm-24.753.287c-2.08 0-3.768 1.676-3.768 3.742 0 2.067 1.687 3.742 3.768 3.742 2.08 0 3.767-1.675 3.767-3.742 0-2.066-1.686-3.742-3.767-3.742zm36.48 0c-2.08 0-3.767 1.676-3.767 3.742 0 .754.225 1.456.61 2.043l5.103-5.248a3.768 3.768 0 0 0-1.945-.537zm-48.208.288c-1.92 0-3.478 1.546-3.478 3.454 0 1.908 1.557 3.454 3.478 3.454 1.92 0 3.478-1.546 3.478-3.454 0-1.908-1.557-3.454-3.478-3.454zm61.081.191-4.387 4.514a3.48 3.48 0 0 0 3.243 2.203c1.92 0 3.478-1.546 3.478-3.454 0-1.51-.975-2.793-2.334-3.263zm-72.81.097c-1.76 0-3.187 1.417-3.187 3.166 0 1.749 1.427 3.166 3.187 3.166 1.761 0 3.188-1.417 3.188-3.166 0-1.749-1.427-3.166-3.188-3.166zm83.394 0c-1.761 0-3.189 1.417-3.189 3.166 0 1.749 1.428 3.166 3.189 3.166 1.76 0 3.188-1.417 3.188-3.166 0-1.749-1.428-3.166-3.188-3.166zm-95.122.287c-1.6 0-2.898 1.29-2.898 2.88a2.888 2.888 0 0 0 2.898 2.878c1.601 0 2.899-1.289 2.899-2.879a2.889 2.889 0 0 0-2.899-2.879zm106.85 0c-1.6 0-2.898 1.29-2.898 2.88a2.888 2.888 0 0 0 2.898 2.878c1.601 0 2.898-1.289 2.898-2.879a2.888 2.888 0 0 0-2.898-2.879zM57.5 52.42c-2.4 0-4.347 1.932-4.347 4.317 0 2.385 1.946 4.318 4.347 4.318 2.401 0 4.347-1.933 4.347-4.318S59.901 52.42 57.5 52.42zm13.025 0c-2.401 0-4.348 1.932-4.348 4.317 0 1.022.358 1.962.955 2.701l5.991-6.162a4.346 4.346 0 0 0-2.598-.856zm-24.753.288c-2.241 0-4.057 1.803-4.057 4.03 0 2.225 1.816 4.03 4.057 4.03 2.24 0 4.058-1.805 4.058-4.03 0-2.227-1.817-4.03-4.058-4.03zm-11.728.287c-2.08 0-3.768 1.675-3.768 3.742s1.687 3.743 3.768 3.743c2.08 0 3.767-1.676 3.767-3.743s-1.686-3.742-3.767-3.742zm59.937 0c-2.08 0-3.768 1.675-3.768 3.742s1.687 3.743 3.768 3.743c2.081 0 3.768-1.676 3.768-3.743s-1.687-3.742-3.768-3.742zm-9.869.16-5.399 5.554a4.062 4.062 0 0 0 3.54 2.059c2.24 0 4.057-1.805 4.057-4.03 0-1.56-.893-2.913-2.198-3.583zm-61.797.128c-1.92 0-3.477 1.546-3.477 3.454 0 1.908 1.557 3.455 3.477 3.455 1.921 0 3.478-1.547 3.478-3.455 0-1.908-1.557-3.454-3.478-3.454zm83.394 0c-1.921 0-3.478 1.546-3.478 3.454 0 1.908 1.557 3.455 3.478 3.455 1.92 0 3.478-1.547 3.478-3.455 0-1.908-1.557-3.454-3.478-3.454zm-95.122.288c-1.76 0-3.188 1.417-3.188 3.166 0 1.749 1.428 3.167 3.188 3.167 1.761 0 3.188-1.418 3.188-3.167 0-1.749-1.427-3.166-3.188-3.166zm106.85 0c-1.76 0-3.188 1.417-3.188 3.166 0 1.749 1.427 3.167 3.188 3.167a3.177 3.177 0 0 0 3.188-3.167c0-1.749-1.427-3.166-3.188-3.166zM.638 54.465a64.072 64.114 0 0 0-.542 4.877 2.878 2.878 0 0 0 1.662-2.605c0-.924-.439-1.745-1.12-2.272zm126.727.016a2.866 2.866 0 0 0-1.098 2.256c0 1.14.668 2.127 1.637 2.593a64.072 64.114 0 0 0-.54-4.849zM57.5 65.356c-2.4 0-4.347 1.933-4.347 4.317 0 1.138.443 2.173 1.167 2.945l6.03-6.204a4.348 4.348 0 0 0-2.85-1.058zm14.502.255-5.513 5.672a4.349 4.349 0 0 0 4.036 2.708c2.4 0 4.347-1.933 4.347-4.318a4.321 4.321 0 0 0-2.87-4.062zm-26.23.033c-2.241 0-4.057 1.804-4.057 4.03 0 2.225 1.816 4.03 4.057 4.03 2.24 0 4.058-1.805 4.058-4.03 0-2.226-1.817-4.03-4.058-4.03zm36.48 0c-2.24 0-4.057 1.804-4.057 4.03 0 2.225 1.817 4.03 4.058 4.03 2.24 0 4.057-1.805 4.057-4.03 0-2.226-1.816-4.03-4.057-4.03zm-48.208.287c-2.08 0-3.768 1.676-3.768 3.742 0 2.067 1.687 3.743 3.768 3.743 2.08 0 3.767-1.676 3.767-3.743 0-2.066-1.686-3.742-3.767-3.742zm59.937 0c-2.08 0-3.768 1.676-3.768 3.742 0 2.067 1.687 3.743 3.768 3.743 2.081 0 3.768-1.676 3.768-3.743 0-2.066-1.687-3.742-3.768-3.742zm-71.666.288c-1.92 0-3.477 1.547-3.477 3.454 0 1.908 1.557 3.455 3.477 3.455 1.921 0 3.478-1.547 3.478-3.455 0-1.907-1.557-3.454-3.478-3.454zm83.394 0c-1.921 0-3.478 1.547-3.478 3.454 0 1.908 1.557 3.455 3.478 3.455 1.92 0 3.478-1.547 3.478-3.455 0-1.907-1.557-3.454-3.478-3.454zm-95.122.288c-1.76 0-3.188 1.417-3.188 3.166 0 1.749 1.428 3.168 3.188 3.168 1.761 0 3.188-1.419 3.188-3.168s-1.427-3.166-3.188-3.166zm106.85 0c-1.76 0-3.188 1.417-3.188 3.166 0 1.749 1.427 3.168 3.188 3.168a3.177 3.177 0 0 0 3.188-3.168c0-1.749-1.427-3.166-3.188-3.166zM0 67.027a64.072 64.114 0 0 0 .441 5.06 2.873 2.873 0 0 0 1.317-2.414A2.878 2.878 0 0 0 0 67.027Zm128 .01a2.877 2.877 0 0 0-1.733 2.636c0 1.001.514 1.883 1.294 2.4a64.072 64.114 0 0 0 .439-5.036zM70.525 77.292c-2.241 0-4.058 1.804-4.058 4.03s1.817 4.03 4.058 4.03c2.24 0 4.057-1.804 4.057-4.03s-1.816-4.03-4.057-4.03zm-24.753.288c-2.08 0-3.768 1.675-3.768 3.742 0 1.08.46 2.051 1.196 2.734l5.233-5.382a3.768 3.768 0 0 0-2.661-1.094zm36.48 0c-2.08 0-3.767 1.675-3.767 3.742s1.687 3.742 3.768 3.742c2.08 0 3.767-1.675 3.767-3.742s-1.686-3.742-3.767-3.742zm-48.208.288c-1.92 0-3.478 1.546-3.478 3.454 0 1.908 1.557 3.454 3.478 3.454 1.92 0 3.478-1.546 3.478-3.454 0-1.908-1.557-3.454-3.478-3.454zm59.937 0c-1.92 0-3.478 1.546-3.478 3.454 0 1.908 1.557 3.454 3.478 3.454 1.92 0 3.478-1.546 3.478-3.454 0-1.908-1.557-3.454-3.478-3.454zm-34.087.2-5.585 5.744a4.06 4.06 0 0 0 3.191 1.54c2.241 0 4.057-1.804 4.057-4.03a4.016 4.016 0 0 0-1.663-3.254zm-37.579.088c-1.76 0-3.187 1.417-3.187 3.166 0 1.749 1.427 3.166 3.187 3.166 1.761 0 3.188-1.417 3.188-3.166 0-1.749-1.427-3.166-3.188-3.166zm83.394 0c-1.761 0-3.189 1.417-3.189 3.166 0 1.749 1.428 3.166 3.189 3.166 1.76 0 3.188-1.417 3.188-3.166 0-1.749-1.428-3.166-3.188-3.166zm-95.122.288a2.888 2.888 0 0 0-2.898 2.878 2.888 2.888 0 0 0 2.898 2.879c1.601 0 2.899-1.289 2.899-2.879a2.889 2.889 0 0 0-2.899-2.878zm106.85 0a2.888 2.888 0 0 0-2.898 2.878 2.888 2.888 0 0 0 2.898 2.879c1.6 0 2.898-1.289 2.898-2.879a2.888 2.888 0 0 0-2.898-2.878zM57.5 89.229c-2.08 0-3.768 1.675-3.768 3.742 0 2.066 1.688 3.742 3.768 3.742 2.081 0 3.768-1.676 3.768-3.742 0-2.067-1.687-3.742-3.768-3.742zm13.025 0c-2.081 0-3.768 1.675-3.768 3.742 0 2.066 1.687 3.742 3.768 3.742 2.08 0 3.767-1.676 3.767-3.742 0-2.067-1.686-3.742-3.767-3.742zm11.728.287c-1.92 0-3.478 1.547-3.478 3.455 0 1.907 1.557 3.454 3.478 3.454 1.92 0 3.477-1.547 3.477-3.454 0-1.908-1.556-3.455-3.477-3.455zm-48.21.288c-1.76 0-3.188 1.418-3.188 3.167 0 1.02.487 1.928 1.242 2.507l4.402-4.528a3.19 3.19 0 0 0-2.455-1.146zm59.938 0c-1.76 0-3.189 1.418-3.189 3.167 0 1.748 1.428 3.166 3.19 3.166a3.176 3.176 0 0 0 3.186-3.166 3.176 3.176 0 0 0-3.187-3.167zm-71.666.288a2.888 2.888 0 0 0-2.898 2.879c0 1.59 1.298 2.879 2.898 2.879 1.601 0 2.898-1.29 2.898-2.88a2.888 2.888 0 0 0-2.898-2.878zm83.394 0a2.888 2.888 0 0 0-2.898 2.879c0 1.59 1.297 2.879 2.898 2.879a2.89 2.89 0 0 0 2.898-2.88 2.889 2.889 0 0 0-2.898-2.878zm-57.718.219-4.818 4.956a3.48 3.48 0 0 0 2.599 1.158c1.92 0 3.477-1.547 3.477-3.454 0-1.07-.49-2.027-1.258-2.66zm-37.404.069a2.6 2.6 0 0 0-2.608 2.59 2.6 2.6 0 0 0 2.608 2.592 2.6 2.6 0 0 0 2.61-2.591 2.6 2.6 0 0 0-2.61-2.591zm106.85 0a2.6 2.6 0 0 0-2.608 2.59 2.6 2.6 0 0 0 2.608 2.592 2.6 2.6 0 0 0 2.608-2.591 2.6 2.6 0 0 0-2.608-2.591zM57.5 101.165c-1.92 0-3.478 1.547-3.478 3.454 0 1.908 1.558 3.455 3.478 3.455 1.921 0 3.478-1.547 3.478-3.455 0-1.907-1.557-3.454-3.478-3.454zm13.025 0c-1.92 0-3.478 1.547-3.478 3.454 0 1.908 1.557 3.455 3.478 3.455 1.92 0 3.478-1.547 3.478-3.455 0-1.907-1.557-3.454-3.478-3.454zm-24.753.288c-1.76 0-3.188 1.418-3.188 3.166 0 1.75 1.427 3.167 3.188 3.167 1.76 0 3.188-1.418 3.188-3.167 0-1.748-1.427-3.166-3.188-3.166zm36.48 0c-1.76 0-3.187 1.418-3.187 3.166 0 1.75 1.427 3.167 3.188 3.167 1.76 0 3.188-1.418 3.188-3.167 0-1.748-1.428-3.166-3.188-3.166zm11.73.288a2.889 2.889 0 0 0-2.9 2.878 2.89 2.89 0 0 0 2.9 2.88c1.6 0 2.897-1.29 2.897-2.88a2.888 2.888 0 0 0-2.898-2.878zm-71.667.288a2.6 2.6 0 0 0-2.608 2.591c0 .963.53 1.804 1.314 2.25h.001l3.512-3.613a2.61 2.61 0 0 0-2.219-1.228zm83.394 0a2.6 2.6 0 0 0-2.608 2.591 2.599 2.599 0 0 0 2.608 2.59c1.44 0 2.608-1.159 2.608-2.59a2.6 2.6 0 0 0-2.608-2.591zm-69.633.538-4.026 4.142a2.9 2.9 0 0 0 1.994.79c1.6 0 2.898-1.29 2.898-2.88a2.86 2.86 0 0 0-.866-2.052zM57.5 113.102c-1.76 0-3.188 1.418-3.188 3.167 0 1.749 1.428 3.166 3.188 3.166 1.761 0 3.188-1.417 3.188-3.166 0-1.749-1.427-3.167-3.188-3.167zm13.025 0c-1.76 0-3.189 1.418-3.189 3.167 0 1.749 1.428 3.166 3.189 3.166 1.76 0 3.188-1.417 3.188-3.166 0-1.749-1.427-3.167-3.188-3.167zm-24.753.287a2.89 2.89 0 0 0-2.899 2.88 2.888 2.888 0 0 0 2.899 2.878c1.6 0 2.898-1.289 2.898-2.878 0-1.59-1.297-2.88-2.898-2.88zm36.48 0a2.89 2.89 0 0 0-2.898 2.88 2.888 2.888 0 0 0 2.899 2.878c1.6 0 2.898-1.289 2.898-2.878 0-1.59-1.297-2.88-2.898-2.88zm-48.208.289a2.6 2.6 0 0 0-2.609 2.59 2.6 2.6 0 0 0 2.609 2.59 2.6 2.6 0 0 0 2.609-2.59 2.6 2.6 0 0 0-2.61-2.59zm59.937 0a2.6 2.6 0 0 0-2.609 2.59 2.6 2.6 0 0 0 2.61 2.59c1.44 0 2.607-1.158 2.607-2.59a2.6 2.6 0 0 0-2.608-2.59zm-36.48 11.36a2.894 2.894 0 0 0-2.855 2.376 64.072 64.114 0 0 0 5.751.586l.001-.083a2.888 2.888 0 0 0-2.898-2.878zm13.024 0a2.889 2.889 0 0 0-2.9 2.88l.002.08a64.072 64.114 0 0 0 5.751-.587 2.893 2.893 0 0 0-2.853-2.372zm-24.753.288c-.117 0-.232.007-.345.023a64.072 64.114 0 0 0 2.009.574 2.608 2.608 0 0 0-1.664-.596zm36.48 0a2.61 2.61 0 0 0-1.652.587 64.072 64.114 0 0 0 1.98-.567 2.662 2.662 0 0 0-.327-.02z"/><rect style="fill:currentColor;fill-opacity:1;stroke-width:.0866875" width="7.207" height="131.782" x="-93.406" y="-65.891" ry="4.436" rx="3.603" transform="scale(-1 1) rotate(-45)"/></svg>